<?xml version="1.0" standalone="no"?>
<!DOCTYPE svg PUBLIC "-//W3C//DTD SVG 20010904//EN"
 "http://www.w3.org/TR/2001/REC-SVG-20010904/DTD/svg10.dtd">
<svg version="1.0" xmlns="http://www.w3.org/2000/svg"
 width="440.000000pt" height="440.000000pt" viewBox="0 0 440.000000 440.000000"
 preserveAspectRatio="xMidYMid meet">
<metadata>
Created by potrace 1.11, written by Peter Selinger 2001-2013
</metadata>
<g transform="translate(0.000000,440.000000) scale(0.100000,-0.100000)"
fill="#000000" stroke="none">
<path d="M0 2200 l0 -2200 2200 0 2200 0 -1 273 c0 155 -5 263 -9 252 -8 -17
-9 -16 -9 8 -1 16 3 26 8 23 4 -3 9 27 10 67 l2 72 -43 16 c-24 9 -90 32 -147
50 -81 25 -99 34 -83 40 11 4 36 4 54 -2 18 -5 57 -9 87 -9 39 0 58 -5 68 -17
8 -10 12 -12 8 -5 -4 8 2 12 20 12 15 0 24 -4 20 -10 -4 -6 -11 -7 -17 -4 -7
4 -8 2 -4 -4 4 -6 13 -9 21 -5 12 4 15 26 15 99 0 56 -4 94 -10 94 -5 0 -10
-4 -10 -9 0 -5 -26 -12 -57 -16 -32 -3 -69 -14 -83 -22 -16 -10 -20 -11 -12
-2 17 19 15 33 -3 15 -8 -8 -15 -21 -15 -29 0 -16 -64 -60 -115 -78 -31 -12
-41 -10 -87 10 -59 25 -111 40 -62 17 32 -15 94 -71 94 -85 0 -4 12 -13 26
-20 21 -9 24 -14 15 -25 -9 -11 0 -25 44 -67 30 -30 53 -60 50 -67 -3 -7 0
-10 5 -7 10 6 17 -8 40 -80 22 -70 22 -71 6 -51 -9 11 -16 16 -16 10 0 -5 -5
-2 -10 6 -7 11 -10 11 -10 2 0 -8 -5 -10 -12 -6 -8 5 -9 1 -4 -12 6 -16 5 -17
-6 -6 -11 11 -10 16 5 26 22 17 22 21 -3 23 -11 1 -18 -2 -15 -8 4 -5 2 -9 -4
-9 -5 0 -12 4 -16 10 -7 11 -35 2 -35 -12 0 -5 4 -7 9 -4 13 8 42 -4 36 -15
-3 -4 -11 -6 -19 -3 -8 3 -12 -3 -12 -17 1 -13 -6 -23 -17 -25 -9 -1 -15 2
-11 7 3 5 10 7 15 4 5 -4 9 1 9 9 0 9 -8 14 -20 13 -11 -1 -20 -5 -20 -10 0
-5 -9 -20 -20 -34 -11 -14 -20 -21 -20 -15 0 6 4 13 9 17 6 3 6 17 -1 35 -11
34 -24 39 -24 10 0 -11 4 -20 9 -20 14 0 -3 -19 -26 -30 -21 -11 -21 -11 -3 4
11 9 14 16 7 16 -7 0 -9 5 -5 12 4 7 3 8 -4 4 -7 -4 -12 -2 -12 3 0 6 5 11 10
11 6 0 10 5 10 11 0 8 -5 7 -15 -1 -9 -7 -14 -19 -11 -26 3 -7 0 -14 -6 -16
-6 -2 -12 -16 -12 -30 -1 -15 -5 -31 -10 -35 -4 -4 -6 7 -3 25 3 20 1 32 -6
32 -7 0 -4 7 6 14 10 8 14 17 9 20 -10 6 -22 -14 -29 -48 -6 -33 -12 -30 -11
5 1 19 6 37 12 42 6 4 0 5 -14 4 -25 -4 -34 -26 -16 -39 6 -4 8 -9 5 -13 -3
-3 -23 11 -44 30 -36 34 -36 36 -11 31 14 -2 28 0 32 5 4 6 10 6 19 -1 9 -7
16 -6 25 5 7 8 10 16 6 16 -25 5 -33 3 -50 -10 -10 -9 -19 -16 -20 -15 -40 22
-53 28 -63 26 -7 -2 -17 6 -22 17 -6 10 -18 21 -28 25 -16 5 -16 4 1 -9 16
-12 17 -17 6 -30 -20 -24 -27 -18 -28 25 -2 37 0 40 26 40 41 0 72 11 72 25 0
10 -8 10 -37 -1 -53 -18 -56 -18 -71 15 -9 21 -18 28 -29 24 -13 -5 -15 -2
-10 11 4 10 7 20 7 22 0 3 4 3 8 0 5 -3 9 0 10 7 18 113 16 121 -32 195 l-35
52 25 1 c13 1 27 2 32 3 4 1 21 5 38 10 22 5 47 1 85 -14 68 -25 88 -25 29 1
-34 16 -41 22 -30 29 10 6 -4 7 -37 3 -38 -4 -53 -2 -53 6 0 7 -5 9 -10 6 -14
-8 -152 45 -166 64 -9 12 -16 13 -35 4 l-24 -12 28 0 c33 -1 36 -21 3 -21 -14
0 -32 -7 -40 -16 -9 -8 -16 -13 -16 -10 0 3 -16 -2 -35 -10 -19 -7 -47 -14
-62 -14 l-28 0 25 13 c14 7 47 21 73 31 70 26 51 31 -23 5 -54 -18 -66 -20
-89 -8 -44 22 -47 21 -16 -5 26 -23 28 -26 10 -27 l-20 0 20 -9 c16 -7 17 -9
3 -9 -9 -1 -20 4 -23 9 -3 6 -15 10 -26 10 -24 0 -25 17 -1 23 13 4 12 5 -5 6
-28 1 -41 21 -14 21 12 0 21 4 21 8 0 12 -22 32 -34 32 -6 0 -2 -8 9 -17 20
-15 20 -15 -2 -10 -16 4 -23 1 -23 -10 0 -12 -7 -14 -31 -9 -17 3 -40 6 -50 6
-14 0 -19 8 -20 33 -1 23 -4 16 -9 -21 -5 -33 -16 -61 -28 -73 -12 -10 -24
-25 -29 -33 -5 -10 -34 -17 -86 -22 l-77 -7 -2 64 c0 35 -3 48 -5 29 -7 -72
-10 -77 -42 -72 -20 3 -35 -2 -50 -17 -12 -12 -26 -19 -31 -16 -4 3 -11 -1
-14 -7 -3 -9 -10 -7 -23 7 -10 11 -31 26 -46 33 -28 12 -28 13 -13 37 23 35
20 49 -18 108 -27 41 -35 66 -40 120 -9 88 -17 127 -27 127 -4 0 -4 -14 1 -30
5 -17 10 -60 11 -98 1 -37 6 -73 12 -79 5 -7 7 -19 4 -26 -3 -8 -1 -20 5 -28
8 -11 9 -10 4 3 -9 28 8 21 27 -11 19 -33 23 -71 6 -71 -5 0 -8 -4 -4 -9 3 -5
0 -13 -7 -17 -7 -4 -10 -4 -6 1 8 9 -15 35 -31 35 -6 0 -11 -4 -11 -10 0 -5
-5 -10 -11 -10 -5 0 -8 4 -4 10 3 5 -14 8 -44 7 -27 -1 -47 -5 -44 -9 2 -5 -3
-8 -12 -8 -9 0 -14 4 -10 9 3 6 -9 7 -31 4 -25 -4 -39 -2 -45 8 -8 12 -11 12
-19 -1 -7 -11 -10 -11 -10 -2 0 18 30 28 40 13 12 -20 44 -8 60 23 21 41 40
45 39 9 0 -23 -2 -25 -8 -9 -7 19 -8 19 -13 -1 -4 -16 0 -23 16 -27 32 -9 36
-7 36 10 0 8 -3 13 -7 11 -5 -3 -9 6 -9 19 -2 20 1 23 12 13 8 -6 14 -17 14
-24 0 -7 7 -15 15 -19 20 -7 19 1 -5 26 -20 22 -27 44 -11 34 5 -4 7 4 3 16
-5 19 -6 20 -12 4 -5 -16 -8 -16 -18 -3 -7 8 -11 21 -9 28 2 8 2 11 0 6 -3 -4
-9 -4 -15 -1 -7 4 -7 0 -1 -12 7 -14 4 -24 -12 -40 -12 -11 -28 -18 -35 -16
-7 3 -10 0 -6 -7 11 -18 -14 -13 -50 10 -19 11 -31 25 -28 31 4 7 9 6 14 -2 4
-7 13 -9 20 -5 9 5 11 4 6 -3 -4 -7 -2 -12 3 -12 6 0 11 7 11 15 0 8 5 15 12
15 6 0 9 3 6 6 -4 3 -15 1 -27 -5 -14 -8 -22 -8 -26 -1 -5 8 -11 8 -20 0 -7
-6 -20 -8 -29 -4 -9 3 -16 1 -16 -6 0 -6 4 -8 10 -5 5 3 17 -3 27 -14 9 -11
20 -18 24 -16 4 3 12 -2 19 -10 11 -14 10 -14 -15 -5 -22 8 -26 8 -22 -3 3 -8
-1 -14 -9 -14 -17 0 -18 9 -3 24 9 9 5 14 -15 19 -14 3 -33 16 -41 27 -11 16
-15 17 -15 6 0 -9 -11 -22 -25 -29 -26 -14 -24 -36 2 -25 13 4 14 3 3 -9 -11
-14 -14 -14 -27 0 -14 14 -13 17 6 35 12 12 18 25 14 32 -5 8 -9 7 -11 -6 -3
-15 -14 -21 -35 -18 -4 1 -5 -11 -2 -26 5 -26 5 -26 -4 -5 -11 23 -23 30 -18
11 1 -6 -4 -14 -12 -17 -8 -2 -11 0 -7 6 3 6 1 14 -5 17 -5 4 -8 13 -5 21 6
17 1 17 -26 3 -15 -8 -23 -8 -32 1 -8 8 -7 10 7 5 10 -4 17 -2 17 4 0 6 -6 11
-12 11 -9 0 -8 3 2 10 9 6 17 5 22 -3 6 -9 8 -8 8 3 0 9 9 4 23 -14 21 -26 25
-27 45 -15 28 18 28 23 -4 38 -23 10 -24 14 -13 28 12 15 12 16 -6 10 -18 -7
-19 -6 -3 6 10 8 15 17 11 21 -9 9 -53 -34 -53 -53 0 -13 -2 -14 -9 -2 -5 8
-7 19 -5 26 7 16 -34 51 -46 39 -14 -14 -20 -86 -6 -81 6 2 11 10 11 18 0 18
27 18 33 0 3 -8 0 -11 -6 -8 -5 4 -15 0 -22 -8 -7 -9 -21 -13 -31 -10 -15 5
-18 2 -13 -12 5 -15 4 -16 -5 -3 -9 12 -11 13 -11 1 0 -8 -3 -11 -6 -8 -4 4
-1 13 5 21 8 10 9 16 1 21 -6 3 -8 11 -5 16 4 5 1 9 -4 9 -6 0 -11 5 -11 12 0
9 3 9 12 0 23 -23 35 -13 31 24 -3 27 -1 34 9 28 7 -4 9 -3 5 1 -4 5 -14 10
-22 11 -10 2 -12 -3 -5 -21 9 -23 5 -35 -13 -35 -5 0 -7 6 -5 13 7 19 -54 78
-71 68 -15 -10 -7 -31 12 -30 9 0 8 2 -1 6 -6 2 -9 9 -6 14 11 19 35 -11 24
-31 -5 -9 -6 -21 -2 -25 4 -5 1 -5 -6 -1 -7 4 -9 12 -6 18 4 6 2 8 -4 4 -6 -3
-18 4 -26 16 -9 12 -16 18 -16 12 0 -5 6 -16 13 -23 10 -11 6 -13 -20 -8 -20
4 -33 2 -33 -4 0 -10 -45 -8 -56 3 -3 4 -12 4 -19 2 -7 -3 -16 -1 -19 4 -3 5
5 8 17 8 12 -1 28 2 35 7 8 7 12 4 12 -7 0 -23 17 -20 23 5 5 17 1 20 -21 17
-28 -3 -39 19 -17 34 6 5 2 8 -9 8 -12 0 -16 -5 -12 -15 4 -10 -1 -15 -14 -15
-11 0 -22 0 -25 0 -3 0 -5 2 -5 5 1 3 -9 18 -20 33 -13 16 -17 28 -10 30 8 3
8 8 -1 18 -9 11 -8 14 1 14 8 0 10 3 7 7 -4 3 -1 13 5 22 10 13 10 14 -2 4
-19 -18 -27 -16 -33 7 -3 11 -10 20 -16 20 -9 0 -9 -6 -1 -20 9 -16 6 -22 -17
-35 l-28 -15 26 6 c31 6 46 -10 29 -30 -7 -10 -8 -15 0 -18 7 -2 7 -13 -1 -35
-9 -28 -13 -31 -31 -22 -15 8 -17 13 -8 25 7 7 16 11 21 8 5 -3 9 -1 9 3 0 5
-9 14 -20 21 -12 7 -18 17 -14 23 4 7 -1 7 -15 0 -22 -12 -29 -31 -10 -31 5 0
7 6 3 13 -5 8 -2 7 9 -2 13 -11 15 -17 6 -28 -10 -11 -14 -11 -24 4 -22 32
-35 84 -26 101 6 12 4 22 -6 31 -13 12 -14 11 -9 -10 7 -23 6 -23 -6 -4 -13
21 -19 40 -21 68 -1 9 -4 17 -7 17 -4 0 -7 6 -8 13 -14 103 -29 177 -36 184
-5 5 -6 -9 -2 -32 15 -91 19 -145 8 -145 -5 0 -13 -7 -16 -16 -5 -14 -4 -15 9
-4 8 7 15 11 16 9 0 -2 2 -11 4 -19 3 -8 6 -24 7 -35 2 -11 7 -23 12 -27 15
-10 14 -67 -1 -72 -8 -3 -11 -11 -7 -17 4 -8 9 -7 15 2 7 11 12 10 26 -5 12
-14 13 -16 2 -8 -20 15 -28 7 -22 -18 3 -11 10 -17 16 -13 5 3 7 1 4 -5 -8
-12 -32 -10 -44 3 -4 4 -2 5 5 1 18 -10 15 19 -3 34 -11 9 -13 16 -5 24 17 17
11 22 -25 18 -19 -2 -32 -8 -30 -13 3 -4 12 -6 20 -2 8 3 15 0 15 -6 0 -6 -11
-10 -24 -9 -20 2 -23 7 -21 29 3 22 0 27 -15 26 -15 -1 -17 -4 -7 -16 10 -12
8 -13 -13 -8 -14 4 -28 7 -32 7 -4 0 -5 8 -2 18 4 11 3 13 -3 5 -4 -6 -31 -11
-61 -10 -41 2 -47 4 -30 11 13 4 33 12 46 17 25 10 21 29 -6 29 -15 0 -15 -2
-2 -10 13 -9 13 -10 0 -10 -15 0 -52 20 -37 20 5 0 1 7 -8 17 -14 14 -18 14
-26 2 -7 -11 -9 -11 -9 3 0 9 9 20 20 23 26 8 25 21 -2 36 -21 11 -22 11 -9
-5 8 -9 11 -19 8 -22 -7 -7 -47 14 -47 25 0 4 -7 8 -15 8 -8 0 -12 -4 -9 -8 2
-4 -2 -10 -8 -13 -7 -3 -2 -4 12 -1 25 5 25 5 3 -6 -13 -7 -23 -16 -23 -21 0
-5 5 -6 12 -2 7 4 8 3 4 -4 -5 -8 0 -12 13 -12 21 0 29 -24 12 -34 -18 -11
-40 6 -46 36 -4 17 -10 27 -14 22 -7 -11 -31 -17 -31 -8 0 4 8 13 17 21 10 8
12 11 4 7 -7 -3 -17 0 -22 7 -6 10 -9 8 -9 -8 0 -14 -6 -23 -15 -23 -8 0 -15
8 -15 18 0 14 2 15 10 2 8 -12 9 -9 8 11 -2 23 -5 26 -24 19 -27 -11 -65 -9
-58 2 3 4 0 8 -5 8 -15 0 -14 19 3 36 9 8 17 10 21 5 3 -6 -2 -14 -11 -19 -15
-9 -15 -11 6 -22 18 -9 25 -10 28 -1 2 6 11 11 20 11 10 0 13 3 7 8 -14 10
-12 39 3 54 9 9 12 8 12 -7 0 -10 3 -16 6 -12 4 3 4 14 0 23 -6 16 -8 15 -26
-1 -11 -10 -17 -22 -14 -26 3 -5 1 -9 -5 -9 -18 0 -21 17 -6 30 8 7 12 16 9
21 -3 5 1 9 8 9 10 0 10 2 1 8 -6 4 -13 21 -16 37 -4 34 -25 46 -21 13 1 -13
3 -25 4 -28 1 -3 2 -8 1 -12 0 -5 3 -8 7 -8 5 0 9 -7 9 -15 0 -8 -9 -15 -19
-15 -11 0 -17 -3 -15 -7 3 -5 -1 -13 -7 -19 -10 -9 -13 -5 -13 18 0 16 4 24 7
17 5 -7 10 -8 14 -1 3 5 -1 12 -9 16 -19 7 -32 -20 -29 -59 2 -22 1 -26 -6
-15 -8 12 -10 12 -11 -5 0 -11 -3 -14 -6 -7 -2 6 -9 12 -14 12 -6 0 -8 -4 -5
-9 4 -5 -4 -6 -16 -3 -18 5 -19 7 -6 10 10 2 15 9 11 17 -3 9 5 19 21 26 14 7
26 16 26 21 0 13 -18 10 -24 -4 -4 -7 -4 -3 -2 8 2 12 0 28 -5 35 -7 11 -9 9
-10 -6 -1 -11 -3 -25 -3 -32 -1 -6 -5 -15 -9 -19 -8 -8 -8 57 0 88 6 26 31 10
38 -24 5 -20 10 -26 15 -18 4 6 11 11 16 10 5 -1 10 4 13 11 2 8 -2 10 -13 6
-10 -4 -16 -1 -16 9 0 8 5 12 10 9 6 -3 10 -1 10 4 0 10 -19 15 -45 12 -6 0
-17 14 -24 31 -8 18 -16 27 -19 20 -7 -22 -23 -12 -17 11 5 18 4 19 -5 7 -9
-12 -10 -11 -5 7 6 23 -8 38 -25 28 -8 -5 -8 -11 -1 -19 6 -7 8 -21 5 -33 -3
-11 0 -24 6 -28 9 -5 10 -1 6 16 -6 19 -5 21 3 8 6 -10 9 -31 7 -48 -2 -23 2
-35 16 -45 13 -9 16 -16 9 -21 -6 -3 -9 -11 -6 -16 4 -5 -4 -5 -19 1 -20 7
-26 6 -29 -8 -4 -16 -5 -16 -6 0 0 10 8 22 20 28 16 9 18 14 8 26 -6 8 -19 14
-28 13 -10 0 -11 -2 -3 -6 6 -2 12 -9 12 -14 0 -6 -6 -7 -12 -2 -7 4 -17 8
-23 8 -5 1 -9 6 -7 13 1 7 -2 12 -8 12 -5 0 -10 -9 -10 -20 0 -11 -4 -20 -10
-20 -13 0 -13 6 0 31 11 20 40 26 40 9 0 -7 6 -7 20 0 15 8 20 8 20 -1 0 -7 3
-10 6 -6 3 3 -1 15 -9 27 -8 12 -18 17 -21 12 -3 -6 -14 -9 -24 -7 -9 1 -23
-2 -29 -8 -9 -7 -13 -5 -13 6 0 9 7 14 18 13 9 -2 23 4 30 13 11 14 11 14 5
-3 -4 -13 -3 -17 5 -12 7 4 12 16 12 27 0 15 -4 18 -17 11 -38 -18 -48 -9 -46
41 1 26 7 56 13 67 6 11 7 20 1 20 -5 0 -6 14 -1 35 4 19 6 35 3 35 -3 0 -1 6
4 13 6 6 9 20 8 30 -2 9 0 17 3 17 4 0 7 15 8 33 3 79 23 144 57 181 9 11 17
25 17 31 0 7 9 20 21 31 12 10 27 30 34 44 7 14 43 54 80 90 37 36 75 74 84
84 59 69 72 86 67 86 -3 0 3 9 14 20 11 11 25 19 31 18 6 -2 19 17 28 42 9 25
24 57 33 70 l17 24 132 -13 c73 -6 145 -19 160 -27 20 -10 29 -11 29 -3 0 7
13 10 34 7 19 -2 32 0 30 4 -3 4 -12 8 -20 8 -19 0 -18 29 1 36 8 3 22 -1 30
-10 20 -19 29 -21 23 -3 -3 6 1 26 8 42 7 17 13 24 14 17 0 -16 60 -72 77 -72
7 0 13 9 13 20 0 27 16 25 36 -5 25 -38 35 -30 19 16 -8 23 -14 58 -14 78 1
23 3 28 6 14 6 -29 23 -30 23 -2 0 74 114 330 140 314 5 -3 11 1 13 7 3 7 4
-7 1 -32 -4 -40 -3 -43 8 -24 42 70 48 83 36 80 -7 -1 -10 -1 -6 1 13 7 9 30
-7 43 -12 10 -15 10 -15 0 0 -8 -3 -11 -6 -7 -3 3 -3 11 2 18 5 9 16 3 36 -21
23 -28 30 -32 40 -21 9 10 9 12 1 7 -15 -8 -38 30 -23 39 5 3 10 -1 10 -10 0
-9 5 -13 11 -9 6 3 15 0 20 -7 6 -10 9 -2 9 22 0 23 6 39 15 43 13 5 20 -5 16
-26 -2 -13 17 -9 23 5 3 8 10 6 21 -8 17 -20 16 -78 -1 -134 l-7 -25 29 21
c16 11 34 21 39 20 6 0 20 18 32 39 l23 39 0 -40 c0 -26 3 -35 9 -27 4 8 8 40
9 72 0 32 3 64 7 69 9 15 27 -5 40 -43 13 -37 35 -46 35 -14 0 30 28 71 44 65
7 -3 13 0 13 7 0 6 11 29 25 51 14 22 30 67 36 100 13 75 5 206 -14 259 -9 23
-18 51 -21 63 -3 12 -20 40 -39 62 -19 21 -34 44 -34 50 0 6 17 11 38 12 76 1
78 16 3 22 -45 5 -87 16 -113 30 -22 12 -51 28 -63 34 -12 7 -28 20 -35 28
-11 13 -7 15 29 16 54 2 58 3 67 12 4 4 -15 7 -42 7 -30 0 -63 8 -84 19 -19
11 -46 25 -60 32 -14 8 -38 23 -55 35 -47 33 -157 83 -220 100 -83 21 -92 22
-165 24 l-65 1 35 20 c27 15 29 18 10 13 -38 -10 -111 -54 -149 -90 -19 -19
-37 -32 -39 -29 -9 9 21 76 53 117 36 48 83 69 156 70 22 0 36 4 33 10 -3 5
-23 8 -44 5 -22 -2 -44 1 -51 7 -9 8 -10 8 -6 0 6 -11 -32 -34 -57 -34 -23 0
-87 -69 -97 -105 -6 -20 -14 -33 -18 -31 -5 3 -6 -5 -4 -17 7 -38 -13 -74 -44
-80 -15 -2 -42 -11 -60 -18 -29 -12 -34 -11 -67 15 -45 34 -48 21 -4 -16 32
-26 33 -26 13 -47 -10 -12 -25 -19 -33 -16 -12 4 -12 3 -3 -9 9 -11 8 -15 -4
-20 -8 -3 -15 -11 -15 -18 0 -6 -12 -24 -26 -39 -14 -14 -33 -42 -42 -60 -11
-21 -24 -33 -35 -33 -14 2 -15 -1 -7 -11 8 -9 8 -20 2 -32 -5 -10 -15 -44 -22
-75 -11 -50 -11 -68 5 -135 10 -43 26 -89 35 -103 29 -43 31 -70 7 -81 -19 -8
-19 -9 6 -4 24 5 28 2 33 -25 4 -16 10 -30 14 -30 5 0 7 -11 6 -25 -2 -13 1
-23 6 -22 8 2 38 -86 36 -103 -1 -3 3 -16 9 -30 17 -43 24 -92 11 -84 -8 5 -8
3 -2 -7 13 -20 13 -73 0 -81 -8 -5 -7 -8 2 -8 6 0 12 -9 12 -20 0 -12 -5 -17
-14 -14 -8 3 -17 1 -20 -4 -3 -5 1 -9 10 -8 13 1 16 -13 18 -76 2 -48 -1 -75
-7 -71 -6 3 -7 1 -3 -6 4 -6 12 -9 17 -6 5 4 9 0 9 -9 0 -27 -12 -45 -26 -39
-34 13 -64 -7 -89 -62 -13 -30 -34 -60 -45 -67 -12 -7 -35 -35 -52 -62 -26
-40 -33 -45 -38 -31 -5 14 -8 16 -15 6 -4 -8 -3 -16 4 -21 9 -5 8 -10 -4 -20
-14 -11 -19 -7 -16 13 1 5 -3 6 -9 2 -7 -5 -8 -11 -1 -19 7 -8 6 -17 0 -26 -8
-11 -12 -12 -15 -3 -7 17 -33 -7 -27 -24 2 -6 -9 -22 -26 -34 -17 -13 -31 -28
-31 -33 0 -6 -8 -16 -18 -23 -15 -9 -19 -8 -19 3 0 8 5 14 12 14 7 0 10 19 9
50 -1 35 3 50 11 50 8 0 11 -9 9 -22 -2 -13 -2 -17 2 -10 3 6 12 12 21 12 13
0 13 2 -1 15 -8 8 -19 15 -24 15 -5 0 -14 11 -20 25 -9 20 -8 26 6 34 16 10
16 10 -1 11 -10 0 -16 4 -12 9 3 5 -8 3 -25 -5 -16 -9 -30 -20 -30 -26 0 -7 5
-7 14 1 20 17 33 -5 33 -56 1 -27 -4 -44 -14 -47 -8 -3 -12 -2 -10 2 3 4 1 16
-4 27 -7 18 -8 18 -8 2 -1 -10 -5 -16 -9 -13 -5 3 -9 -1 -9 -9 0 -8 5 -11 10
-8 6 4 8 -1 4 -11 -4 -10 -3 -15 3 -11 6 3 10 1 10 -4 0 -20 -27 -11 -37 12
-11 24 -3 70 11 65 14 -5 15 26 1 39 -10 9 -14 8 -18 -8 -3 -10 -11 -19 -17
-19 -7 0 -10 7 -6 18 5 14 4 14 -9 -2 -8 -11 -13 -30 -11 -42 3 -17 1 -21 -10
-17 -9 3 -14 0 -12 -8 2 -8 -7 -15 -22 -17 -41 -6 -50 -19 -38 -53 5 -16 14
-29 20 -29 6 0 8 7 4 15 -4 11 2 15 22 15 21 0 24 2 12 10 -8 5 -23 7 -34 4
-13 -4 -17 -2 -13 7 2 8 10 13 17 11 7 -2 21 5 31 14 10 9 22 13 28 10 6 -4 8
7 6 28 -2 27 0 33 11 29 10 -4 14 -16 11 -37 -3 -23 3 -37 21 -55 l25 -23 13
23 c13 24 13 24 14 2 0 -12 -5 -25 -10 -28 -7 -4 -7 -12 0 -25 6 -11 6 -21 1
-24 -5 -4 -11 -1 -13 6 -3 7 -7 5 -11 -6 -4 -10 -3 -15 3 -11 17 10 11 -4 -10
-25 -10 -10 -22 -15 -25 -10 -3 5 -13 6 -22 3 -12 -5 -14 -3 -8 7 5 8 4 11 -2
7 -11 -7 -25 38 -15 48 3 3 22 3 41 0 34 -5 34 -4 9 6 -18 7 -25 16 -23 29 5
27 -19 44 -42 31 -16 -10 -15 -10 6 -8 16 1 25 -4 26 -15 2 -13 -4 -18 -21
-18 -13 0 -24 -4 -24 -9 0 -18 -34 -22 -46 -6 -10 14 -12 14 -18 0 -7 -19 -17
-19 -42 0 -16 13 -16 14 -1 9 13 -5 16 -2 11 12 -5 16 -4 16 5 4 9 -13 11 -13
12 0 1 8 3 20 4 25 2 6 3 16 4 23 0 6 5 11 10 10 5 -2 9 0 10 5 3 25 -1 29
-17 14 -21 -19 -32 -22 -32 -7 0 6 7 10 15 10 9 0 12 6 8 17 -4 10 -2 14 4 10
6 -4 14 -1 16 5 4 8 6 7 6 -3 1 -24 29 -31 40 -11 5 9 13 14 17 10 4 -4 -3
-16 -15 -26 -23 -18 -23 -18 -2 -19 12 -1 19 2 16 7 -3 5 0 12 6 15 5 4 8 13
5 21 -3 7 -1 16 4 19 16 10 -1 33 -21 28 -12 -4 -19 -14 -19 -31 l0 -25 -20
23 c-11 13 -20 18 -20 12 0 -5 -6 -9 -12 -8 -18 2 -25 13 -14 23 5 5 6 2 1 -6
-5 -9 -4 -12 3 -7 6 4 9 13 5 22 -4 11 -9 12 -19 3 -10 -8 -14 -8 -14 0 0 6 4
11 10 11 5 0 12 11 16 25 7 30 19 33 21 5 1 -11 -2 -18 -8 -15 -20 13 -7 -11
15 -27 21 -15 25 -16 30 -2 3 8 2 12 -3 9 -5 -3 -13 5 -17 17 -12 37 -13 48
-2 48 6 0 8 -6 5 -13 -3 -8 -1 -20 4 -28 6 -10 9 -10 9 -1 0 6 7 12 15 12 8 0
15 4 15 9 0 4 10 8 23 7 30 -2 44 13 39 41 -4 20 -6 21 -16 8 -8 -11 -15 -12
-26 -4 -13 9 -12 10 3 5 11 -3 17 0 17 10 0 11 -5 12 -17 6 -10 -4 -28 -7 -41
-6 -29 2 -36 -10 -15 -27 10 -8 14 -9 10 -2 -4 6 -3 14 2 18 15 9 32 -30 19
-43 -8 -8 -15 -7 -25 4 -9 9 -23 12 -35 8 -14 -4 -18 -2 -14 5 4 6 3 18 -2 27
-6 11 -11 13 -16 5 -4 -6 -2 -11 3 -11 6 0 11 -5 11 -11 0 -5 -5 -7 -12 -3 -7
5 -9 2 -5 -9 4 -11 2 -14 -9 -10 -17 6 -17 9 -4 34 9 15 7 19 -5 19 -9 0 -14
-4 -10 -9 3 -5 1 -12 -5 -16 -6 -4 -10 6 -10 23 0 17 -10 40 -26 57 -14 15
-22 30 -18 34 4 3 9 0 11 -7 3 -6 9 -10 13 -7 5 3 6 13 3 21 -5 14 -3 14 18 2
35 -19 52 -48 29 -48 -5 0 -10 6 -10 13 0 8 -7 14 -15 14 -18 0 -19 -8 -3 -42
11 -24 33 -30 33 -9 0 5 4 15 9 22 12 19 -21 83 -39 76 -9 -4 -15 0 -15 7 -1
8 -7 3 -14 -10 -11 -20 -14 -21 -19 -7 -4 10 -3 15 2 12 12 -8 22 20 15 39 -4
9 0 15 7 15 11 0 11 3 -1 10 -13 8 -13 10 2 10 11 0 15 5 12 15 -4 8 -11 12
-17 8 -7 -4 -8 0 -3 12 6 16 4 16 -11 4 -11 -9 -14 -10 -9 -1 4 6 3 12 -2 12
-14 0 -33 -26 -24 -34 4 -4 0 -6 -8 -4 -8 2 -14 -1 -15 -7 0 -5 -4 -16 -9 -24
-7 -11 -4 -13 12 -9 12 4 22 2 22 -3 0 -19 -49 -9 -55 11 -4 12 -11 17 -18 14
-7 -4 -9 -4 -5 1 4 4 3 14 -4 22 -9 11 -8 13 3 11 8 -2 13 3 11 12 -3 12 -1
13 10 2 10 -10 10 -15 1 -20 -9 -6 -7 -11 6 -19 16 -10 18 -9 13 9 -4 16 -2
19 8 13 10 -6 12 -4 7 9 -4 11 -2 16 6 14 6 -1 22 3 34 10 12 7 30 10 40 7 10
-3 4 1 -14 10 l-32 15 1 80 c0 47 5 80 11 80 6 0 8 -3 4 -6 -3 -3 -2 -17 4
-31 6 -17 6 -22 -3 -17 -7 4 -8 3 -4 -4 4 -7 11 -12 17 -12 10 0 12 33 2 44
-11 10 -12 37 -2 30 5 -3 9 -12 9 -20 0 -8 5 -14 11 -14 5 0 7 4 4 10 -3 6 1
7 9 4 9 -3 16 -13 16 -21 0 -9 -6 -13 -15 -9 -10 3 -15 -1 -15 -13 0 -10 -7
-21 -15 -25 -20 -7 -19 -22 1 -30 11 -4 15 -2 11 7 -7 18 15 44 46 56 15 6 27
16 27 23 0 10 -2 10 -9 -1 -6 -9 -11 -10 -15 -2 -5 7 9 19 36 31 24 11 34 19
23 19 -11 -1 -29 0 -40 1 l-20 1 20 9 c11 5 15 9 10 9 -6 1 -11 9 -12 19 -2
31 -8 47 -18 50 -6 1 -10 -3 -10 -10 0 -6 -6 -13 -13 -16 -7 -2 -12 0 -11 5 3
19 -2 34 -10 28 -5 -3 -12 -1 -15 4 -7 10 19 23 28 14 3 -4 17 -7 30 -8 19 0
22 2 14 12 -5 7 -26 11 -46 10 -31 -2 -38 -6 -42 -27 l-5 -25 -22 22 c-17 17
-23 19 -27 7 -3 -8 -11 -14 -17 -14 -7 0 -20 -7 -29 -15 -14 -13 -16 -12 -16
5 0 10 3 18 6 18 3 0 16 0 30 1 20 1 22 3 10 11 -13 8 -12 10 3 10 12 0 17 8
17 30 0 17 -4 30 -10 30 -16 0 -12 17 6 24 8 3 13 2 10 -2 -7 -12 15 -102 25
-102 5 0 7 12 4 28 -3 15 -2 21 1 14 3 -6 10 -9 15 -6 6 3 6 11 -2 20 -6 7
-16 11 -21 8 -6 -4 -6 2 1 13 6 11 7 23 4 27 -3 3 5 6 18 6 16 0 20 -3 11 -8
-9 -7 -10 -15 -3 -35 14 -35 50 -32 63 5 7 19 14 25 26 21 10 -4 8 1 -6 15
-23 23 -38 29 -27 12 3 -5 0 -10 -7 -10 -9 0 -9 -3 -2 -8 12 -8 4 -53 -10 -53
-15 -1 -25 25 -20 48 5 18 1 22 -23 25 -26 3 -28 6 -28 50 0 25 3 44 7 42 4
-2 6 5 5 16 -1 11 -5 20 -9 20 -4 0 -8 5 -8 11 0 20 25 3 26 -18 1 -11 4 -25
8 -31 3 -5 -1 -12 -9 -16 -8 -3 -15 -10 -15 -15 0 -16 45 4 46 20 0 8 -5 20
-10 28 -8 11 -8 13 2 7 6 -4 12 -2 12 3 0 6 5 11 11 11 8 0 8 -4 0 -14 -8 -10
-9 -16 -1 -21 5 -3 10 -5 11 -3 6 27 3 40 -18 64 -23 27 -24 28 -20 6 4 -19 3
-21 -8 -12 -13 11 -10 40 4 40 4 0 17 -9 29 -20 24 -23 31 -10 7 14 -20 20
-19 25 5 19 11 -3 18 -9 15 -12 -2 -4 2 -8 10 -8 8 0 12 4 9 9 -3 4 0 8 7 8
16 0 3 13 -16 17 -35 7 -41 9 -54 17 -11 7 -13 4 -9 -12 4 -15 2 -22 -8 -22
-10 0 -11 6 -4 24 5 13 6 28 2 32 -4 5 0 3 9 -4 9 -6 19 -8 23 -4 4 4 13 7 19
7 7 0 11 10 9 21 -5 35 26 38 43 4 9 -17 27 -37 40 -46 14 -9 23 -20 20 -24
-3 -5 0 -12 6 -16 7 -4 9 -3 5 4 -3 6 -2 13 4 17 6 4 8 11 5 16 -4 5 -1 9 4 9
19 0 26 -5 23 -14 -2 -5 4 -4 12 4 19 15 20 21 4 17 -7 -1 -13 4 -14 11 -1 6
-2 16 -3 20 -2 12 -51 34 -51 22 0 -5 9 -12 20 -15 19 -6 19 -7 3 -29 -22 -29
-47 -22 -40 10 2 13 0 24 -4 24 -5 0 -9 -6 -9 -12 0 -7 -8 -1 -18 15 -9 15
-21 27 -26 27 -5 0 1 9 13 19 12 11 30 18 40 16 10 -2 18 3 18 11 0 8 -7 14
-16 14 -9 0 -21 11 -27 24 -10 22 -9 25 12 29 26 5 30 -3 12 -21 -9 -9 -9 -12
3 -12 22 0 41 -44 26 -59 -8 -8 -8 -11 0 -11 13 0 25 28 18 40 -3 5 5 7 17 5
20 -4 19 -1 -10 21 -18 14 -31 31 -30 37 1 7 -2 22 -6 34 -6 20 -10 21 -29 11
-32 -17 -48 -40 -42 -64 3 -15 -2 -24 -19 -32 -24 -11 -36 -7 -36 10 0 5 5 6
12 2 8 -5 9 -2 5 10 -4 10 -7 20 -7 22 0 3 -6 2 -12 -2 -14 -8 9 24 27 39 6 5
0 7 -13 4 -12 -3 -20 -1 -17 4 6 9 55 8 55 -1 0 -3 -5 -11 -12 -18 -22 -22 -1
-12 25 12 14 13 31 26 38 28 9 3 7 10 -7 24 -20 20 -50 22 -38 3 3 -5 -2 -9
-11 -9 -10 0 -13 -5 -9 -12 4 -7 3 -9 -1 -5 -11 10 -16 39 -5 32 4 -3 13 1 19
9 9 11 9 15 -1 19 -7 3 -3 6 9 6 14 1 24 -7 29 -21 l7 -22 18 23 c12 14 23 20
31 15 22 -14 38 -13 38 2 0 8 6 14 13 14 8 0 7 4 -3 10 -8 5 -11 10 -7 10 5 0
1 8 -8 17 -13 12 -21 14 -33 7 -26 -17 -26 -33 0 -31 13 1 24 -2 26 -8 2 -12
-17 -14 -38 -4 -8 4 -20 0 -28 -9 -12 -15 -13 -15 -9 -1 4 13 -2 16 -34 13
-44 -3 -46 -2 -22 17 11 10 14 10 9 2 -5 -9 0 -13 14 -13 12 0 18 4 15 10 -7
12 17 9 25 -2 3 -4 11 2 18 12 7 11 8 20 3 20 -5 0 -9 9 -8 19 0 11 4 19 7 19
3 0 12 0 20 1 12 1 13 3 1 10 -15 10 -7 31 12 31 7 0 6 -4 -3 -10 -13 -8 -13
-10 2 -10 12 0 16 -6 12 -25 -3 -18 0 -25 11 -25 9 0 13 -4 10 -10 -3 -6 1 -7
10 -4 10 4 15 14 12 25 -3 11 -1 17 4 13 5 -3 9 0 9 5 0 6 -5 11 -12 11 -8 0
-7 6 4 16 24 24 41 9 23 -20 -14 -20 -13 -23 0 -23 9 0 14 6 11 13 -3 7 2 15
10 18 8 3 14 10 14 16 0 6 -4 8 -10 5 -6 -3 -10 -1 -10 4 0 6 -11 11 -25 11
-18 0 -26 -7 -31 -25 -3 -14 -4 -31 -1 -39 4 -9 1 -13 -7 -10 -13 5 -17 54 -4
54 4 0 8 9 8 21 0 13 8 23 20 26 16 4 18 8 9 19 -18 21 -2 17 21 -6 12 -12 18
-25 15 -29 -2 -5 2 -11 10 -15 8 -3 14 -16 13 -30 -1 -13 -6 -22 -11 -19 -6 3
-8 -8 -5 -25 2 -17 1 -29 -3 -26 -4 2 -11 -1 -15 -7 -4 -8 -9 -7 -15 2 -7 11
-10 12 -21 1 -11 -11 -10 -13 2 -10 8 2 14 -3 13 -9 -2 -7 2 -13 7 -13 6 0 10
5 10 10 0 6 10 10 22 10 12 0 19 -3 15 -6 -3 -3 -2 -17 3 -30 7 -18 5 -26 -8
-33 -15 -9 -14 -10 6 -11 15 0 22 6 22 19 0 11 8 22 18 24 13 4 12 5 -5 6 -21
1 -22 5 -21 71 1 39 4 66 8 60 4 -7 6 -25 5 -41 -2 -18 2 -29 10 -29 9 0 12
12 9 35 -3 37 10 45 36 23 9 -8 8 -5 -1 7 -9 11 -19 27 -22 35 -4 12 -6 11 -6
-2 -1 -10 -6 -18 -12 -18 -6 0 -8 7 -5 16 3 8 1 25 -5 36 -8 16 -8 23 2 30 11
7 11 11 2 15 -21 8 -15 26 7 20 11 -3 23 -1 26 5 4 5 20 16 38 24 26 11 27 13
9 14 -20 0 -21 3 -12 32 11 40 11 38 -1 38 -5 0 -10 -10 -11 -22 0 -13 -3 -17
-6 -10 -2 6 -9 12 -14 12 -6 0 -8 -4 -5 -9 3 -5 -3 -11 -14 -14 -20 -5 -28
-27 -10 -27 6 0 10 5 10 10 0 6 8 10 18 10 13 0 14 -2 3 -9 -11 -7 -11 -9 0
-14 8 -3 3 -6 -11 -6 -20 -1 -22 -3 -10 -11 12 -8 9 -10 -14 -10 -25 0 -28 -3
-22 -26 5 -17 3 -23 -4 -19 -5 3 -9 19 -8 35 1 16 6 27 10 24 4 -3 6 8 5 23
-1 15 3 28 8 28 19 1 53 29 49 40 -3 6 4 19 15 29 21 19 19 42 -2 29 -6 -4
-18 -8 -27 -9 -8 -1 -22 -3 -30 -5 -8 -2 -15 3 -15 11 0 11 11 15 40 15 22 0
45 -4 52 -8 6 -4 14 -3 17 2 4 6 14 7 23 4 12 -5 14 -3 8 7 -5 9 -4 11 3 6 7
-4 12 -13 12 -21 0 -7 5 -15 12 -17 15 -5 58 14 58 26 0 4 -11 1 -24 -8 -15
-10 -27 -12 -31 -6 -7 12 3 32 13 26 4 -2 16 1 27 5 18 9 18 9 -2 5 -34 -6
-28 34 7 47 8 3 3 5 -12 4 -28 -1 -32 -7 -29 -39 3 -22 -11 -29 -26 -13 -10
10 -9 16 2 25 23 19 18 28 -14 26 -25 -1 -28 -3 -20 -22 8 -23 3 -34 -15 -34
-6 0 -4 5 4 10 11 7 11 10 2 10 -7 0 -11 4 -8 8 3 5 -1 9 -8 9 -8 0 -11 -8 -8
-19 3 -13 0 -17 -11 -12 -12 4 -14 11 -7 30 8 21 7 24 -15 24 -25 0 -35 -15
-14 -22 18 -6 -2 -38 -25 -37 -16 1 -17 2 -3 6 22 6 22 19 0 27 -15 6 -15 8
-3 16 9 6 -172 10 -482 10 l-498 0 0 -2200z m1115 2180 c3 -5 1 -10 -4 -10 -6
0 -11 5 -11 10 0 6 2 10 4 10 3 0 8 -4 11 -10z m-98 -114 c-8 -17 -15 -22 -22
-15 -7 7 -4 15 9 25 26 18 26 18 13 -10z m-77 -6 c0 -5 -4 -10 -10 -10 -5 0
-10 5 -10 10 0 6 5 10 10 10 6 0 10 -4 10 -10z m-53 -15 c0 -8 -4 -12 -9 -9
-5 3 -6 10 -3 15 9 13 12 11 12 -6z m94 -2 c13 -17 13 -17 -5 -3 -18 14 -19
13 -13 -2 3 -10 2 -20 -3 -23 -11 -7 -14 28 -3 38 9 9 9 9 24 -10z m-147 -11
c-8 -5 -4 -13 11 -25 15 -10 26 -13 30 -7 8 13 25 13 25 -1 0 -5 -4 -7 -10 -4
-5 3 -10 -3 -10 -14 0 -11 -4 -23 -10 -26 -5 -3 -7 0 -4 8 6 16 -16 37 -43 42
-10 2 -20 4 -22 4 -8 2 22 31 33 31 8 0 8 -2 0 -8z m103 -34 c-3 -8 -6 -5 -6
6 -1 11 2 17 5 13 3 -3 4 -12 1 -19z m-107 -18 c0 -5 -2 -10 -4 -10 -3 0 -8 5
-11 10 -3 6 -1 10 4 10 6 0 11 -4 11 -10z m107 -25 c0 -17 0 -17 -21 -9 -8 3
-12 12 -10 19 7 17 31 9 31 -10z m-87 -25 c12 -9 10 -10 -10 -4 -23 6 -24 6
-10 -12 14 -17 14 -18 -2 -6 -10 8 -16 18 -15 22 1 5 -7 16 -18 25 -19 15 -18
15 10 1 17 -8 37 -20 45 -26z m-123 15 c0 -8 -4 -12 -9 -9 -5 3 -6 10 -3 15 9
13 12 11 12 -6z m206 -13 c5 -1 6 -6 3 -11 -4 -5 0 -12 6 -15 7 -3 -5 -5 -27
-4 -22 1 -47 -2 -55 -7 -10 -6 -9 -2 3 12 9 11 15 22 12 25 -5 4 34 4 58 0z
m-93 -53 c0 -4 10 -5 23 -2 13 3 18 1 11 -4 -6 -4 -16 -17 -23 -28 -7 -11 -10
-13 -8 -5 4 15 -16 41 -30 39 -18 -3 -33 2 -33 11 0 5 7 6 17 3 11 -4 14 -3 9
6 -6 9 -3 9 13 -1 12 -7 21 -16 21 -19z m110 7 c0 -3 -4 -8 -10 -11 -5 -3 -10
-1 -10 4 0 6 5 11 10 11 6 0 10 -2 10 -4z m25 -6 c3 -5 1 -10 -4 -10 -6 0 -11
5 -11 10 0 6 2 10 4 10 3 0 8 -4 11 -10z m-151 -29 c3 -5 0 -13 -7 -19 -10 -8
-13 -6 -13 9 0 20 11 25 20 10z m166 -1 c0 -5 -5 -10 -11 -10 -5 0 -7 5 -4 10
3 6 8 10 11 10 2 0 4 -4 4 -10z m-272 -105 c-3 -3 -9 2 -12 12 -6 14 -5 15 5
6 7 -7 10 -15 7 -18z m-23 -73 c-3 -3 -12 -7 -21 -8 -11 -2 -12 1 -5 10 6 7 7
17 3 22 -4 4 1 2 11 -5 9 -8 15 -16 12 -19z m-8 -37 c0 -8 -4 -12 -9 -9 -5 3
-6 10 -3 15 9 13 12 11 12 -6z m-37 -41 c0 -9 -9 -27 -20 -41 -11 -14 -20 -21
-20 -16 0 6 7 16 15 23 18 15 19 37 3 43 -8 3 -6 6 5 6 9 1 17 -6 17 -15z
m154 -23 c4 -5 -3 -7 -14 -4 -23 6 -26 13 -6 13 8 0 17 -4 20 -9z m-214 -36
c0 -2 -6 -5 -13 -8 -8 -3 -14 1 -14 8 0 7 6 11 14 8 7 -3 13 -6 13 -8z m80
-17 c0 -6 -3 -8 -6 -5 -4 3 -16 1 -28 -5 -21 -11 -21 -11 -2 10 19 21 36 21
36 0z m87 -10 c-3 -8 -6 -5 -6 6 -1 11 2 17 5 13 3 -3 4 -12 1 -19z m-19 -31
c-7 -7 -21 -16 -32 -20 -12 -5 -16 -13 -12 -23 5 -14 4 -15 -9 -4 -13 11 -12
15 8 36 12 13 30 24 40 24 15 0 16 -2 5 -13z m-87 -31 c-10 -12 -7 -18 18 -31
17 -8 31 -17 31 -18 0 -1 -15 -2 -32 -2 -29 0 -34 -4 -40 -30 -6 -29 -6 -29
-5 5 2 29 6 35 22 32 19 -2 19 -2 3 11 -21 17 -22 23 -5 41 16 18 23 11 8 -8z
m-127 -84 c3 -5 -1 -9 -9 -9 -8 0 -12 4 -9 9 3 4 7 8 9 8 2 0 6 -4 9 -8z m36
-26 c0 -3 -4 -8 -10 -11 -5 -3 -10 -1 -10 4 0 6 5 11 10 11 6 0 10 -2 10 -4z
m30 -6 c0 -5 -5 -10 -11 -10 -5 0 -7 5 -4 10 3 6 8 10 11 10 2 0 4 -4 4 -10z
m5 -30 c11 -5 14 -9 7 -9 -7 -1 -10 -5 -7 -11 3 -5 1 -10 -4 -10 -6 0 -11 6
-11 14 0 8 -6 17 -12 19 -7 3 -8 5 -3 6 6 0 19 -4 30 -9z m2 -65 c0 -6 -6 -12
-12 -12 -6 0 -12 6 -12 12 0 6 6 12 12 12 6 0 12 -6 12 -12z m9 -78 c1 -23 -1
-35 -4 -27 -3 8 -10 18 -16 22 -13 9 -14 41 -1 50 15 11 20 0 21 -45z m-93 13
c-7 -27 -13 -25 -11 4 1 14 5 23 9 20 4 -2 5 -13 2 -24z m-83 16 c0 -2 -7 -7
-16 -10 -8 -3 -12 -2 -9 4 6 10 25 14 25 6z m2101 -40 c-6 -7 -9 -15 -6 -18 3
-3 -1 -11 -10 -18 -18 -15 -19 -3 -5 35 5 14 15 23 20 20 8 -5 8 -11 1 -19z
m-1956 -14 c11 -13 15 -23 10 -22 -24 5 -46 -1 -40 -10 4 -6 12 -7 18 -4 7 4
9 3 4 -1 -4 -5 0 -17 10 -27 9 -10 11 -18 6 -18 -6 0 -13 7 -17 15 -3 8 -11
14 -18 13 -7 -2 -12 6 -13 17 0 11 -4 26 -9 34 -6 10 -5 12 3 7 6 -4 14 0 17
9 4 9 7 15 8 13 1 -2 10 -13 21 -26z m1659 16 c-3 -4 -9 -8 -15 -8 -5 0 -9 4
-9 8 0 5 7 9 15 9 8 0 12 -4 9 -9z m-1735 -14 c4 3 8 -1 8 -9 0 -8 -4 -15 -9
-15 -4 0 -8 2 -8 4 0 2 -2 10 -3 18 -2 7 -2 10 0 5 3 -4 8 -5 12 -3z m1752
-37 c-10 -9 -11 -8 -5 6 3 10 9 15 12 12 3 -3 0 -11 -7 -18z m-80 -10 c-10 -9
-11 -8 -5 6 3 10 9 15 12 12 3 -3 0 -11 -7 -18z m26 -13 c-17 -15 -22 -24 -14
-27 9 -4 9 -6 0 -6 -23 -2 -23 18 2 37 13 11 21 23 17 27 -4 5 -1 5 7 0 11 -7
9 -13 -12 -31z m-1692 6 c3 -5 1 -10 -4 -10 -6 0 -11 5 -11 10 0 6 2 10 4 10
3 0 8 -4 11 -10z m1638 -5 c-3 -9 -8 -14 -10 -11 -3 3 -2 9 2 15 9 16 15 13 8
-4z m-1677 -10 c-4 -24 -16 -30 -16 -7 0 12 4 22 9 22 5 0 8 -7 7 -15z m-76
-40 c-7 -9 -15 -13 -19 -10 -3 3 1 10 9 15 21 14 24 12 10 -5z m120 -10 c11
-13 10 -14 -4 -9 -9 3 -16 10 -16 15 0 13 6 11 20 -6z m-70 -5 c-8 -5 -19 -10
-25 -10 -5 0 -3 5 5 10 8 5 20 10 25 10 6 0 3 -5 -5 -10z m62 -48 c-3 -10 -1
-13 6 -8 6 3 14 1 18 -5 4 -7 3 -9 -4 -5 -6 3 -13 2 -17 -4 -4 -6 -11 -8 -16
-4 -5 3 -6 10 -3 16 4 6 -4 19 -17 29 l-24 19 31 -12 c22 -8 30 -16 26 -26z
m-46 -9 c-7 -7 -21 -4 -21 5 0 4 -4 14 -9 22 -6 9 -1 7 12 -4 12 -11 20 -21
18 -23z m224 6 c0 -11 4 -18 9 -15 5 4 7 -3 4 -14 -3 -11 -10 -20 -15 -20 -5
0 -6 -5 -3 -10 4 -6 11 -7 17 -4 7 4 8 2 4 -4 -5 -9 -13 -9 -27 -2 -11 6 -23
9 -28 6 -4 -3 -8 2 -8 10 0 8 6 13 14 10 20 -8 16 8 -6 23 -24 18 -18 36 14
39 19 1 25 -3 25 -19z m-327 -4 c-3 -9 -8 -14 -10 -11 -3 3 -2 9 2 15 9 16 15
13 8 -4z m38 -12 c-12 -20 -14 -14 -5 12 4 9 9 14 11 11 3 -2 0 -13 -6 -23z
m189 14 c-11 -8 -15 -29 -15 -64 1 -55 -9 -71 -17 -29 -3 14 0 30 5 35 7 7 7
14 -1 23 -12 15 -5 32 18 41 24 9 26 7 10 -6z m156 -25 c-10 -10 -29 15 -21
28 6 9 10 8 17 -4 6 -10 7 -20 4 -24z m-126 18 c0 -5 -5 -10 -11 -10 -5 0 -7
5 -4 10 3 6 8 10 11 10 2 0 4 -4 4 -10z m-180 -28 c0 -5 -7 -9 -15 -9 -8 0
-15 4 -15 9 0 4 7 8 15 8 8 0 15 -4 15 -8z m295 -12 c-3 -5 2 -13 11 -18 15
-8 15 -10 -1 -16 -22 -8 -22 -8 -30 27 -6 22 -4 26 9 21 9 -3 14 -10 11 -14z
m-236 -16 c-6 -8 -21 -14 -33 -13 -19 1 -18 2 4 8 14 4 24 13 22 20 -1 7 2 10
8 6 8 -5 7 -11 -1 -21z m118 -4 c-16 -19 -22 -70 -8 -70 6 0 8 6 5 14 -3 8 -2
16 3 19 4 3 9 -6 9 -19 1 -14 -4 -24 -12 -24 -8 0 -11 -6 -7 -16 5 -13 7 -13
14 -2 7 10 9 9 9 -3 0 -9 -9 -19 -21 -22 -12 -3 -18 -10 -14 -16 3 -6 10 -9
15 -6 5 3 7 -4 5 -15 -5 -28 -14 -40 -28 -39 -9 0 -9 2 1 6 6 2 12 9 12 14 0
13 -23 6 -37 -11 -6 -8 -15 -12 -19 -7 -4 4 -2 7 4 7 7 0 12 7 12 15 0 8 5 15
11 15 5 0 7 5 4 11 -4 6 0 16 9 22 13 10 14 21 7 65 -4 30 -4 55 1 58 4 3 6 9
4 13 -3 3 4 7 14 7 16 0 17 -3 7 -16z m-197 -81 c0 -5 -5 -9 -12 -9 -6 0 -8 3
-5 7 4 3 1 13 -6 22 -11 14 -10 14 6 2 9 -7 17 -17 17 -22z m91 -2 c-10 -9
-11 -8 -5 6 3 10 9 15 12 12 3 -3 0 -11 -7 -18z m49 13 c5 8 9 7 13 -5 4 -9 3
-13 -3 -10 -6 3 -10 1 -10 -4 0 -6 7 -11 15 -11 8 0 15 -4 15 -10 0 -13 -17
-13 -25 0 -4 6 -9 8 -13 6 -4 -2 -8 8 -8 22 -1 15 1 21 3 13 4 -10 7 -10 13
-1z m-43 -49 c0 -11 -5 -18 -9 -15 -4 3 -5 11 -1 19 7 21 12 19 10 -4z m3 -40
c0 -5 8 -12 18 -14 9 -3 2 -4 -16 -3 -17 2 -35 6 -40 11 -4 5 -1 5 6 1 6 -4
12 -2 12 3 0 6 5 11 10 11 6 0 10 -4 10 -9z m-7 -38 c-7 -2 -19 -2 -25 0 -7 3
-2 5 12 5 14 0 19 -2 13 -5z m4 -46 c0 -8 -6 -14 -14 -14 -9 0 -10 4 -2 14 6
7 12 13 14 13 1 0 2 -6 2 -13z m-164 -12 c-3 -9 -8 -14 -10 -11 -3 3 -2 9 2
15 9 16 15 13 8 -4z m1143 7 c6 -4 14 -23 17 -42 3 -19 9 -46 13 -59 7 -24 7
-24 -47 -17 -29 4 -55 9 -57 10 -1 2 1 14 6 26 6 15 11 19 16 12 15 -25 26
-10 26 33 0 45 5 52 26 37z m-965 -47 c5 4 9 1 9 -5 0 -17 -25 -6 -26 11 -1 9
1 10 3 1 3 -7 9 -10 14 -7z m59 -27 c0 -4 -4 -8 -10 -8 -5 0 -10 -5 -10 -10 0
-6 7 -10 16 -8 12 2 18 -6 21 -27 2 -16 1 -26 -4 -21 -4 4 -8 11 -8 14 0 4
-10 17 -22 30 -28 27 -29 38 -3 38 11 0 20 -4 20 -8z m40 2 c0 -5 -4 -10 -10
-10 -5 0 -10 5 -10 10 0 6 5 10 10 10 6 0 10 -4 10 -10z m-136 -16 c6 -15 4
-15 -11 -3 -10 7 -20 15 -22 16 -2 2 3 3 11 3 9 0 19 -7 22 -16z m46 10 c0 -8
-19 -13 -24 -6 -3 5 1 9 9 9 8 0 15 -2 15 -3z m10 -27 c0 -8 -7 -14 -15 -14
-25 0 -17 17 13 26 1 1 2 -5 2 -12z m84 -3 c3 -8 2 -12 -4 -9 -6 3 -10 10 -10
16 0 14 7 11 14 -7z m-144 -24 c0 -5 -5 -10 -11 -10 -5 0 -7 5 -4 10 3 6 8 10
11 10 2 0 4 -4 4 -10z m86 -26 c-3 -8 -12 -12 -18 -9 -7 4 -5 0 4 -8 10 -8 15
-17 11 -20 -3 -4 -2 -7 3 -7 5 0 9 -14 10 -30 1 -24 -2 -28 -12 -19 -7 6 -13
14 -12 17 3 23 -3 52 -10 48 -4 -2 -9 4 -9 16 -1 14 3 18 14 14 10 -4 14 -2
10 8 -3 8 -3 17 1 21 9 9 15 -13 8 -31z m-50 -30 c2 -14 0 -14 -17 2 -17 16
-24 13 -20 -9 1 -5 -3 -5 -9 -2 -8 5 -6 13 6 26 19 21 36 13 40 -17z m144 16
c0 -5 -2 -10 -4 -10 -3 0 -8 5 -11 10 -3 6 -1 10 4 10 6 0 11 -4 11 -10z m-35
-10 c-3 -5 -11 -10 -16 -10 -6 0 -7 5 -4 10 3 6 11 10 16 10 6 0 7 -4 4 -10z
m-180 -19 c3 -5 1 -12 -5 -16 -5 -3 -10 1 -10 9 0 18 6 21 15 7z m221 0 c-4
-5 0 -12 6 -14 8 -3 6 -6 -4 -6 -10 -1 -18 6 -18 14 0 8 5 15 11 15 5 0 8 -4
5 -9z m-37 -23 c-1 -18 -2 -19 -6 -5 -2 9 -9 15 -14 12 -5 -4 -9 -1 -9 4 0 6
7 11 15 11 9 0 15 -9 14 -22z m-94 -8 c-2 -11 0 -20 6 -20 5 0 9 -5 9 -11 0
-8 -6 -7 -17 2 -9 8 -26 13 -37 12 -16 -1 -16 0 -3 3 9 3 14 10 11 16 -4 6 -2
8 4 4 6 -3 13 -2 17 4 10 16 14 12 10 -10z m62 -22 c-3 -8 -6 -5 -6 6 -1 11 2
17 5 13 3 -3 4 -12 1 -19z m-142 2 c3 -5 1 -10 -4 -10 -6 0 -11 5 -11 10 0 6
2 10 4 10 3 0 8 -4 11 -10z m413 1 c11 -6 9 -9 -5 -13 -12 -3 -20 0 -20 8 0
16 6 17 25 5z m-168 -5 c0 -3 -4 -8 -10 -11 -5 -3 -10 -1 -10 4 0 6 5 11 10
11 6 0 10 -2 10 -4z m-73 -35 c0 -10 -7 -18 -14 -18 -8 0 -11 7 -8 14 3 8 5
19 5 24 0 6 4 8 9 4 6 -3 9 -14 8 -24z m-125 1 c-7 -2 -9 -9 -5 -15 4 -7 -1
-6 -10 2 -18 15 -23 26 -7 16 6 -3 10 -1 10 5 0 6 5 8 12 4 9 -6 9 -9 0 -12z
m201 -45 c-3 -5 -8 -4 -12 2 -4 6 -16 18 -27 27 -14 11 -11 11 13 -2 18 -10
29 -22 26 -27z m-96 -2 c0 -6 -6 -12 -14 -12 -7 0 -13 6 -13 12 0 6 6 12 13
12 8 0 14 -6 14 -12z m20 -17 c-3 -7 -5 -2 -5 12 0 14 2 19 5 13 2 -7 2 -19 0
-25z m-58 19 c-2 -1 -13 -9 -24 -17 -19 -14 -19 -14 -6 3 7 9 18 17 24 17 6 0
8 -1 6 -3z m105 -20 c-3 -8 5 -18 18 -25 13 -6 18 -11 12 -11 -18 -2 -47 26
-40 37 10 16 17 15 10 -1z m36 -7 c0 -5 -2 -10 -4 -10 -3 0 -8 5 -11 10 -3 6
-1 10 4 10 6 0 11 -4 11 -10z m214 -8 c3 -5 -1 -9 -9 -9 -8 0 -12 4 -9 9 3 4
7 8 9 8 2 0 6 -4 9 -8z m-317 -48 c-3 -3 -12 -4 -19 -1 -8 3 -5 6 6 6 11 1 17
-2 13 -5z m87 -2 c2 -4 0 -14 -6 -22 -8 -12 -9 -12 -5 2 3 9 1 19 -6 22 -9 3
-9 5 0 5 6 1 14 -3 17 -7z m46 -29 c0 -1 -9 -12 -20 -23 -16 -16 -20 -17 -20
-5 0 8 5 15 11 15 5 0 8 4 5 8 -3 5 1 9 9 9 8 0 15 -2 15 -4z m-125 -82 c-3
-5 -1 -12 5 -16 5 -3 10 -1 10 5 0 6 4 9 9 6 5 -4 12 0 14 6 3 7 6 3 6 -9 1
-23 -19 -27 -47 -10 -11 8 -8 27 4 27 3 0 3 -4 -1 -9z m77 0 c-8 -4 -13 -12
-13 -17 1 -17 -10 -44 -19 -44 -5 0 -12 5 -16 12 -4 6 -3 8 3 5 6 -4 16 6 22
23 5 17 16 30 23 30 10 0 10 -2 0 -9z m71 -31 c4 0 6 4 3 8 -2 4 8 7 22 6 15
-1 33 3 40 9 6 5 12 8 13 6 0 -2 3 -13 6 -24 3 -11 6 -34 6 -52 1 -17 5 -29 9
-27 5 3 6 9 3 14 -3 5 -1 11 4 14 5 4 9 -8 9 -26 -1 -18 -3 -27 -6 -20 -3 10
-7 10 -20 0 -10 -7 -14 -8 -9 -3 4 4 0 17 -10 27 -14 16 -14 18 0 18 8 0 14 6
13 13 -3 18 -25 54 -26 41 0 -7 -11 -9 -27 -7 -23 4 -25 2 -13 -7 12 -10 12
-11 -5 -4 -11 4 -28 7 -37 8 -9 0 -14 5 -11 10 3 5 1 6 -5 2 -17 -10 -15 -24
6 -29 13 -4 12 -5 -5 -6 -28 -1 -33 8 -22 37 8 22 10 22 31 8 12 -9 26 -16 31
-16z m63 -32 c4 -6 3 -8 -3 -5 -6 4 -13 -2 -16 -13 -5 -20 -27 -28 -27 -10 0
6 5 10 10 10 6 0 9 3 9 8 -4 24 14 31 27 10z m79 -18 c3 -5 1 -10 -4 -10 -6 0
-11 5 -11 10 0 6 2 10 4 10 3 0 8 -4 11 -10z m-194 -23 c-10 -9 -11 -8 -5 6 3
10 9 15 12 12 3 -3 0 -11 -7 -18z m39 -24 c-14 -3 -31 -10 -38 -15 -9 -8 -11
-7 -6 6 4 10 17 16 38 15 27 -2 28 -2 6 -6z m-40 -78 c0 -5 -5 -3 -10 5 -5 8
-10 20 -10 25 0 6 5 3 10 -5 5 -8 10 -19 10 -25z m107 9 c-3 -3 -12 -4 -19 -1
-8 3 -5 6 6 6 11 1 17 -2 13 -5z m17 -44 c-6 -6 -10 -3 -10 10 0 13 4 16 10
10 7 -7 7 -13 0 -20z m-27 -132 c-3 -8 -6 -5 -6 6 -1 11 2 17 5 13 3 -3 4 -12
1 -19z m143 -274 c0 -9 -5 -12 -12 -8 -7 5 -9 2 -6 -8 4 -8 2 -21 -3 -29 -6
-10 -9 -2 -7 24 1 22 7 37 15 37 7 0 13 -7 13 -16z m-106 -92 c3 -5 -1 -9 -9
-9 -8 0 -12 4 -9 9 3 4 7 8 9 8 2 0 6 -4 9 -8z m36 -38 c0 -2 -12 -4 -26 -4
-14 0 -23 4 -20 9 6 8 46 4 46 -5z m129 -85 c-22 -13 -31 -11 -17 5 7 8 17 12
22 9 4 -3 2 -9 -5 -14z m47 -29 c9 0 12 -4 9 -10 -4 -6 -13 -5 -25 2 -10 7
-16 17 -13 22 4 6 8 5 11 -2 2 -7 10 -12 18 -12z m191 -6 c-3 -3 -12 -4 -19
-1 -8 3 -5 6 6 6 11 1 17 -2 13 -5z m-147 -44 c0 -5 -2 -10 -4 -10 -3 0 -8 5
-11 10 -3 6 -1 10 4 10 6 0 11 -4 11 -10z m153 -32 c-4 -7 -8 -16 -8 -20 0 -3
-4 -10 -9 -15 -5 -4 -6 -3 -2 4 3 6 -2 17 -11 23 -16 10 -16 11 -1 6 10 -3 20
-1 23 4 4 6 8 10 11 10 3 0 2 -6 -3 -12z m136 -92 c9 -10 7 -17 -6 -27 -16
-12 -17 -12 -6 2 16 19 5 33 -14 18 -13 -11 -19 2 -6 14 10 10 19 8 32 -7z
m131 -6 c0 -5 -8 -10 -17 -10 -15 0 -16 2 -3 10 19 12 20 12 20 0z m-61 -64
c0 -6 -3 -6 -6 2 -2 6 -10 9 -16 5 -7 -3 -9 -3 -5 2 4 4 2 15 -4 24 -8 10 -4
9 10 -3 12 -11 22 -24 21 -30z m43 32 c-9 -9 -7 -15 6 -25 15 -13 14 -13 -6
-3 -19 9 -21 14 -11 26 6 8 14 14 17 14 3 0 1 -5 -6 -12z m104 -12 c1 -7 -4
-13 -12 -13 -9 0 -11 4 -4 12 5 7 8 15 5 18 -3 4 -2 5 2 2 4 -3 8 -11 9 -19z
m394 -72 c0 -8 -8 -14 -17 -14 -16 0 -15 -1 1 -13 17 -12 13 -52 -5 -42 -4 3
-6 12 -3 19 3 8 -7 18 -25 26 -19 8 -28 17 -24 26 4 12 7 12 18 -2 13 -19 35
-11 35 12 0 8 5 12 10 9 6 -3 10 -13 10 -21z m100 -15 c0 -14 -17 -10 -23 5
-4 10 -1 13 9 9 7 -3 14 -9 14 -14z m-669 -32 c-10 -9 -11 -8 -5 6 3 10 9 15
12 12 3 -3 0 -11 -7 -18z m396 1 c-8 -13 -13 -14 -19 -5 -12 18 -10 23 11 23
15 0 17 -3 8 -18z m60 7 c0 -6 -6 -12 -12 -12 -6 0 -12 6 -12 12 0 6 6 12 12
12 6 0 12 -6 12 -12z m20 -22 c-3 -10 -5 -4 -5 12 0 17 2 24 5 18 2 -7 2 -21
0 -30z m53 11 c0 -4 -6 -4 -14 -1 -8 3 -17 1 -19 -6 -3 -7 -4 -2 -4 10 1 17 4
20 19 12 10 -5 18 -12 18 -15z m216 -13 c14 -11 21 -22 16 -25 -10 -6 -52 21
-52 35 0 14 9 11 36 -10z m-236 -39 c0 -15 -2 -15 -10 -2 -13 20 -13 33 0 25
6 -3 10 -14 10 -23z m56 -16 c0 -14 -5 -21 -9 -17 -4 4 -5 15 -1 24 9 24 12
21 10 -7z m94 -27 c0 -10 -4 -19 -9 -19 -5 0 -7 10 -3 22 4 16 2 19 -9 12 -21
-12 -49 -15 -49 -5 0 6 9 8 20 6 11 -2 22 1 25 6 9 14 25 0 25 -22z m240 5 c0
-2 -13 -4 -30 -4 -16 0 -30 4 -30 8 0 5 14 7 30 4 17 -2 30 -6 30 -8z m-186
-44 c-6 -6 -10 -3 -10 10 0 13 4 16 10 10 7 -7 7 -13 0 -20z m169 23 c-7 -2
-21 -2 -30 0 -10 3 -4 5 12 5 17 0 24 -2 18 -5z m122 -13 c-3 -5 -10 -10 -16
-10 -5 0 -9 5 -9 10 0 6 7 10 16 10 8 0 12 -4 9 -10z m733 -3 c7 3 24 2 38 -1
20 -5 24 -11 18 -28 -4 -14 -2 -18 5 -14 6 4 11 3 11 -2 0 -10 -158 -37 -167
-29 -3 4 6 20 21 37 14 17 26 36 26 41 0 6 7 6 18 1 9 -5 23 -7 30 -5z m-818
-18 c0 -14 -16 -11 -29 5 -10 12 -8 13 8 9 12 -3 21 -9 21 -14z m1309 -11 c54
-17 55 -18 16 -15 -43 4 -95 25 -95 39 0 5 5 6 12 2 6 -4 36 -15 67 -26z
m-1472 16 c-3 -3 -12 -4 -19 -1 -8 3 -5 6 6 6 11 1 17 -2 13 -5z m40 0 c-3 -3
-12 -4 -19 -1 -8 3 -5 6 6 6 11 1 17 -2 13 -5z m1399 -96 c-7 -4 -12 -19 -10
-34 3 -33 14 -45 14 -16 0 12 6 22 13 22 8 0 7 4 -3 11 -13 9 -13 10 0 6 8 -2
14 -10 13 -16 -2 -6 2 -11 8 -11 5 0 7 -5 3 -11 -4 -8 -9 -7 -15 2 -7 11 -9
11 -9 -2 0 -9 -8 -23 -17 -30 -9 -8 -14 -9 -10 -3 3 6 -1 20 -9 30 -15 18 -15
18 -11 -3 3 -13 1 -23 -5 -23 -6 0 -8 11 -6 25 3 14 1 28 -3 31 -5 3 -9 0 -9
-5 0 -6 -4 -11 -10 -11 -5 0 -6 8 -3 18 6 15 5 16 -13 3 -18 -14 -18 -14 -2 4
17 18 18 18 43 -5 14 -13 25 -19 25 -13 0 6 -7 16 -15 23 -16 13 -10 35 6 24
5 -3 6 -10 3 -16 -5 -7 -2 -8 5 -3 10 5 10 10 1 19 -6 6 -14 11 -18 12 -16 2
-48 18 -55 28 -5 7 -7 3 -5 -9 2 -12 10 -19 20 -17 9 1 20 -3 24 -9 4 -8 3 -9
-4 -5 -7 4 -18 4 -24 -1 -23 -14 -36 -11 -31 7 3 10 1 20 -4 23 -4 3 -9 -10
-10 -29 -2 -21 2 -34 9 -34 6 0 9 -3 5 -6 -9 -9 -32 9 -32 26 0 8 5 19 10 23
6 5 -1 5 -14 2 -20 -6 -23 -4 -17 11 5 17 4 17 -6 4 -7 -9 -23 -16 -36 -17
-21 -2 -22 0 -10 14 8 11 8 14 1 10 -6 -4 -14 -3 -17 2 -7 11 49 25 64 16 5
-3 10 -2 10 2 0 5 19 14 43 19 42 10 42 10 84 -35 32 -34 39 -47 29 -53z
m-1297 70 c13 -4 13 -5 0 -10 -9 -4 -21 2 -29 15 -11 19 -11 20 1 11 8 -6 21
-13 28 -16z m85 -6 c-5 -4 -12 -11 -15 -15 -3 -5 -9 -2 -12 5 -3 9 3 14 15 15
11 1 16 -1 12 -5z m21 -11 c-3 -6 -11 -11 -16 -11 -5 0 -4 6 3 14 14 16 24 13
13 -3z m177 -3 c-3 -14 -2 -19 6 -14 7 4 12 3 12 -2 0 -6 11 -13 25 -16 14 -4
25 -12 25 -18 0 -9 -3 -9 -12 0 -7 7 -20 12 -29 12 -10 0 -25 10 -33 21 -10
15 -21 20 -35 16 -28 -7 -27 1 2 13 36 14 46 12 39 -12z m665 16 c-3 -3 -12
-4 -19 -1 -8 3 -5 6 6 6 11 1 17 -2 13 -5z m96 -21 c-5 -13 -2 -15 11 -10 10
4 15 3 11 -3 -3 -6 6 -15 21 -20 20 -8 29 -8 34 0 5 8 9 6 14 -6 3 -9 4 -19 1
-22 -3 -3 -5 0 -5 7 0 7 -4 9 -10 6 -6 -4 -4 -16 6 -31 18 -26 4 -33 -17 -8
-7 8 -20 14 -29 11 -8 -2 -21 2 -28 9 -17 18 -15 25 6 17 15 -6 16 -5 1 9 -10
10 -25 14 -42 11 -15 -3 -34 0 -42 7 -12 10 -15 10 -15 -3 0 -9 -4 -18 -8 -21
-5 -3 -8 5 -7 17 2 18 8 22 38 22 20 0 41 6 48 13 17 16 20 15 12 -5z m-823
-19 c0 -3 -4 -3 -9 0 -5 4 -11 1 -13 -6 -3 -7 -7 -3 -10 10 -5 19 -4 20 13 11
10 -5 19 -12 19 -15z m680 -6 c0 -5 -4 -8 -10 -8 -5 0 -7 -6 -4 -14 3 -9 -5
-16 -23 -21 -15 -3 -31 -11 -34 -17 -3 -5 -9 -1 -11 10 -4 15 -2 19 8 15 17
-6 48 23 34 32 -5 3 -10 1 -10 -4 0 -6 -12 -10 -27 -9 -46 3 -50 13 -8 18 53
8 85 7 85 -2z m30 8 c0 -3 -4 -8 -10 -11 -5 -3 -10 -1 -10 4 0 6 5 11 10 11 6
0 10 -2 10 -4z m-673 -28 c-3 -8 -6 -5 -6 6 -1 11 2 17 5 13 3 -3 4 -12 1 -19z
m535 -23 c-3 -5 -8 -3 -10 3 -3 10 -7 10 -18 1 -11 -9 -15 -8 -20 5 -6 15 -9
15 -30 -5 -13 -12 -24 -20 -24 -16 0 14 43 45 56 40 8 -3 14 0 14 6 0 6 8 3
18 -6 11 -10 16 -22 14 -28z m-258 24 c-4 -8 1 -9 16 -4 19 6 22 4 16 -11 -6
-16 -5 -17 11 -3 10 9 32 15 48 15 17 -1 33 2 36 7 4 5 15 7 25 4 17 -4 17 -6
-3 -12 -14 -4 -20 -12 -16 -19 10 -15 13 -40 5 -31 -4 4 -7 12 -7 18 0 7 -8
13 -19 15 -11 2 -16 0 -12 -6 3 -6 1 -14 -5 -18 -8 -4 -9 -3 -5 4 4 7 3 12 -3
12 -5 0 -13 -5 -16 -10 -5 -8 -11 -7 -21 1 -8 6 -14 8 -14 3 0 -4 -5 -3 -11 3
-14 14 -42 5 -32 -10 3 -6 1 -7 -6 -3 -9 6 -9 11 0 22 11 13 6 18 -14 15 -5
-1 -6 3 -2 9 3 5 13 10 21 10 9 0 12 -5 8 -11z m500 -4 c-4 -8 -12 -15 -20
-15 -20 0 -17 18 4 23 9 3 18 5 19 6 1 0 0 -6 -3 -14z m-104 -5 c0 -5 -2 -10
-4 -10 -3 0 -8 5 -11 10 -3 6 -1 10 4 10 6 0 11 -4 11 -10z m-462 -24 c-1 -14
-5 -23 -9 -20 -4 2 -6 12 -4 22 5 23 4 22 10 22 3 0 4 -11 3 -24z m505 -33
c-3 -7 -9 -13 -14 -13 -4 0 -6 7 -3 15 4 8 1 15 -5 15 -6 0 -11 -8 -12 -17 0
-14 -2 -15 -6 -3 -3 8 -11 19 -17 23 -7 6 -4 7 6 3 10 -3 20 -1 23 4 8 14 34
-12 28 -27z m54 31 c-3 -3 -12 -4 -19 -1 -8 3 -5 6 6 6 11 1 17 -2 13 -5z
m-523 -25 c-3 -5 -10 -7 -15 -3 -5 3 -7 10 -3 15 3 5 10 7 15 3 5 -3 7 -10 3
-15z m1386 -39 c124 -41 166 -61 117 -56 -15 2 -24 0 -22 -4 7 -11 -55 -31
-68 -23 -6 3 -7 1 -3 -5 5 -8 -2 -12 -19 -12 -15 0 -24 -4 -20 -10 3 -6 -4
-10 -17 -9 l-23 0 23 16 c27 19 29 33 3 33 -10 0 -34 12 -54 28 -19 15 -49 34
-65 44 -17 9 -35 25 -41 36 -10 19 -8 19 27 11 20 -4 93 -27 162 -49z m-980
40 c8 -5 11 -12 8 -16 -4 -3 -14 1 -23 10 -18 17 -9 21 15 6z m280 6 c0 -3 -4
-8 -10 -11 -5 -3 -10 -1 -10 4 0 6 5 11 10 11 6 0 10 -2 10 -4z m-492 -20 c-7
-8 -15 -12 -17 -11 -5 6 10 25 20 25 5 0 4 -6 -3 -14z m122 -7 c0 -5 -4 -9
-10 -9 -5 0 -10 7 -10 16 0 8 5 12 10 9 6 -3 10 -10 10 -16z m512 -2 c-12 -13
-20 -26 -16 -29 3 -3 1 -9 -5 -12 -5 -4 -12 -2 -15 3 -6 9 37 61 50 61 4 0 -2
-10 -14 -23z m-211 6 c-11 -5 -11 -7 0 -14 11 -7 10 -9 -3 -9 -18 0 -23 11
-11 23 3 4 11 7 17 6 6 0 5 -3 -3 -6z m239 -40 c0 -25 -1 -26 -16 -11 -9 9
-13 21 -10 27 13 20 26 11 26 -16z m-220 -3 c0 -5 -5 -10 -11 -10 -5 0 -7 5
-4 10 3 6 8 10 11 10 2 0 4 -4 4 -10z m657 -32 c21 -20 31 -48 17 -48 -9 0
-54 53 -54 63 0 13 13 8 37 -15z m240 -144 c-3 -3 -12 -4 -19 -1 -8 3 -5 6 6
6 11 1 17 -2 13 -5z m-67 -24 c0 -5 -3 -9 -7 -9 -24 4 -31 -3 -25 -23 5 -22 5
-22 -12 -5 -10 10 -17 19 -15 21 10 8 45 25 52 26 4 0 7 -4 7 -10z m37 -9 c-3
-13 1 -21 14 -24 13 -3 17 -1 12 6 -11 18 -12 37 -2 37 5 0 9 -7 9 -15 0 -8 5
-15 12 -15 8 0 7 -6 -4 -16 -18 -18 -53 -12 -62 12 -3 8 -2 12 4 9 6 -3 10 1
10 9 0 9 3 16 6 16 4 0 4 -9 1 -19z m-8 -60 c0 -10 -2 -11 -6 -3 -6 15 -33 16
-33 0 0 -6 -3 -8 -6 -5 -11 11 16 36 32 30 8 -3 14 -13 13 -22z m-528 1 c12 3
14 -5 10 -48 0 -8 -5 -13 -10 -9 -6 3 -8 14 -6 25 5 28 -11 25 -19 -2 -4 -19
-7 -20 -18 -9 -11 11 -10 14 1 18 10 4 11 7 1 13 -7 4 -9 13 -5 19 5 9 10 9
20 1 7 -6 19 -9 26 -8z m406 -37 c0 -8 -4 -12 -9 -9 -5 3 -6 10 -3 15 9 13 12
11 12 -6z m-479 -19 c-2 -1 -12 -8 -22 -16 -18 -14 -18 -14 -6 7 8 12 18 19
23 16 4 -3 7 -6 5 -7z m122 -2 c0 -2 -7 -4 -15 -4 -8 0 -15 4 -15 10 0 5 7 7
15 4 8 -4 15 -8 15 -10z m-91 -18 c10 -12 8 -13 -8 -9 -12 3 -18 9 -15 14 7
12 10 11 23 -5z m336 -6 c3 -5 -3 -10 -15 -10 -12 0 -18 5 -15 10 3 6 10 10
15 10 5 0 12 -4 15 -10z"/>
<path d="M885 4120 c-3 -5 3 -10 14 -10 12 0 21 5 21 10 0 6 -6 10 -14 10 -8
0 -18 -4 -21 -10z"/>
<path d="M545 3330 c-3 -5 1 -10 10 -10 9 0 13 5 10 10 -3 6 -8 10 -10 10 -2
0 -7 -4 -10 -10z"/>
<path d="M658 3159 c-3 -8 1 -20 8 -27 15 -14 17 -7 5 22 -6 15 -9 16 -13 5z"/>
<path d="M573 2937 c0 -8 6 -14 14 -14 9 0 10 4 2 14 -6 7 -12 13 -14 13 -1 0
-2 -6 -2 -13z"/>
<path d="M3485 899 c-4 -6 -5 -12 -2 -15 2 -3 7 2 10 11 7 17 1 20 -8 4z"/>
<path d="M3410 832 c0 -4 9 -13 20 -20 19 -12 20 -11 8 8 -13 20 -28 27 -28
12z"/>
<path d="M2914 819 c-9 -15 12 -17 30 -4 17 13 17 14 -4 12 -12 -1 -24 -5 -26
-8z"/>
<path d="M3095 4390 c4 -6 9 -324 11 -708 3 -383 6 -730 7 -769 1 -40 -1 -73
-5 -73 -5 0 -7 -6 -5 -12 2 -12 -4 -12 -46 -1 -13 4 -16 1 -11 -12 5 -13 9
-14 15 -3 6 9 9 6 9 -10 0 -13 -4 -20 -10 -17 -5 3 -10 1 -10 -4 0 -6 4 -11
10 -11 12 0 7 -180 -5 -200 -5 -8 -4 -11 2 -7 6 4 9 -28 8 -91 -1 -53 0 -82 2
-64 2 18 8 30 13 27 9 -6 7 21 -2 30 -3 4 -2 19 2 35 4 16 6 31 3 34 -5 4 -5
57 0 156 1 34 6 44 17 42 11 -3 11 1 -3 16 -21 23 -22 59 -2 59 8 0 16 -5 16
-11 5 -43 3 -64 -8 -83 -11 -20 -11 -22 3 -16 14 5 15 3 5 -15 -8 -15 -9 -28
-2 -41 8 -14 7 -22 -4 -31 -14 -11 -14 -15 0 -30 18 -20 20 -34 3 -24 -6 4 -8
3 -5 -3 9 -15 16 -63 9 -62 -19 3 -22 -3 -10 -23 15 -28 12 -226 -4 -245 -6
-7 -6 -13 -2 -13 5 0 10 -32 12 -72 1 -53 -2 -76 -14 -89 -12 -13 -12 -19 -3
-25 7 -4 10 -3 5 4 -3 6 -2 13 4 17 12 7 12 -14 1 -73 -5 -23 -5 -45 0 -48 13
-8 11 -74 -3 -74 -6 0 -9 -3 -5 -6 3 -4 21 6 39 21 18 16 47 34 63 41 18 8 23
13 13 14 -21 0 -24 18 -4 26 8 3 19 18 26 34 11 27 27 39 58 46 6 1 12 -1 12
-6 0 -4 7 -11 16 -14 8 -3 12 -2 9 3 -3 5 -1 12 5 16 5 3 10 -1 10 -10 0 -11
8 -15 29 -13 16 1 27 7 25 13 -2 5 6 11 18 12 13 2 44 5 70 9 63 8 103 -10
133 -63 36 -61 33 -110 -8 -158 -29 -33 -40 -39 -75 -39 l-41 -1 21 -35 c41
-69 34 -215 -14 -295 -10 -16 -18 -33 -18 -36 0 -10 111 11 142 27 27 14 34
14 76 0 64 -22 124 -20 168 6 34 20 36 24 31 60 -6 47 -2 49 90 52 58 1 68 4
67 18 -1 14 2 16 17 7 21 -11 25 -20 8 -17 -6 2 -13 -2 -16 -8 -2 -7 4 -11 14
-10 19 1 43 18 38 26 -2 3 7 6 18 7 40 3 102 14 127 23 14 5 51 14 83 20 l57
11 -2 217 c-3 185 -5 217 -18 217 -26 1 -38 14 -33 35 4 14 0 20 -11 20 -9 0
-16 5 -16 11 0 8 -5 7 -15 -1 -9 -7 -18 -10 -22 -6 -3 3 -1 6 5 6 7 0 12 5 12
11 0 5 -4 8 -8 5 -4 -2 -14 15 -21 40 -12 41 -15 43 -28 27 -13 -17 -14 -17
-8 3 3 14 -3 28 -19 43 -13 13 -27 35 -31 49 -5 20 -8 23 -16 11 -7 -12 -9
-12 -10 1 0 10 -3 8 -8 -5 -5 -12 -4 -26 3 -34 8 -11 8 -13 -2 -7 -7 4 -26 0
-44 -8 -34 -18 -52 -21 -28 -6 11 7 9 8 -10 6 -40 -5 -60 -17 -61 -35 0 -12
-2 -12 -9 4 -5 11 -9 15 -9 9 -1 -7 -11 -14 -24 -18 -12 -3 -31 -13 -42 -23
-11 -10 -32 -24 -47 -32 -16 -8 -28 -20 -28 -28 0 -7 -5 -13 -10 -13 -6 0 -15
-11 -20 -25 -5 -14 -14 -25 -19 -25 -6 0 -17 -13 -26 -29 -31 -61 -40 -63 -85
-20 -22 22 -47 39 -54 39 -8 0 -29 7 -49 15 l-35 15 13 42 c18 59 59 148 81
177 54 68 106 116 169 154 67 40 73 42 156 43 47 0 92 4 99 9 8 5 11 4 7 -2
-4 -6 4 -13 18 -15 15 -3 26 0 29 9 8 21 8 23 -8 23 -8 0 -17 6 -19 13 -4 10
-6 10 -6 0 -1 -18 -21 -16 -21 1 0 8 -5 16 -12 18 -17 6 26 72 65 102 72 54
110 68 195 74 l82 5 0 71 c0 68 -1 72 -30 88 -16 9 -29 14 -27 10 1 -4 0 -7
-3 -8 -3 0 -14 -6 -26 -12 -13 -7 -32 -8 -50 -3 -25 6 -29 13 -30 42 0 32 -2
34 -35 34 l-34 0 1 100 c1 85 0 96 -10 73 -12 -27 -12 -27 -29 -8 -14 17 -15
24 -5 40 10 16 10 22 -4 32 -15 12 -16 25 -8 123 6 61 14 135 20 165 6 30 15
87 20 125 21 141 118 393 160 415 13 7 19 18 16 26 -5 13 5 19 27 15 17 -3 5
27 -14 32 -17 5 -18 3 -7 -10 10 -13 9 -15 -7 -11 -11 2 -20 10 -20 18 0 8 -4
20 -8 27 -4 6 -8 23 -9 37 -1 14 -5 26 -8 26 -3 0 -5 12 -6 28 0 15 -2 41 -4
57 -2 17 0 49 4 73 l8 42 -597 0 c-407 0 -594 -3 -590 -10z m25 -1790 c0 -5
-5 -10 -11 -10 -5 0 -7 5 -4 10 3 6 8 10 11 10 2 0 4 -4 4 -10z m760 -480 c0
-5 -5 -10 -11 -10 -5 0 -7 5 -4 10 3 6 8 10 11 10 2 0 4 -4 4 -10z m-550 -64
c0 -14 -5 -28 -12 -32 -8 -5 -9 -2 -5 10 5 14 3 17 -8 12 -18 -7 -20 5 -3 22
19 19 28 14 28 -12z m50 -32 c0 -8 -7 -14 -15 -14 -8 0 -15 2 -15 4 0 2 -3 11
-6 19 -4 12 0 14 15 10 12 -3 21 -12 21 -19z m705 -324 c3 -6 -1 -7 -9 -4 -18
7 -21 14 -7 14 6 0 13 -4 16 -10z"/>
<path d="M1316 4381 c-4 -5 3 -7 14 -4 23 6 26 13 6 13 -8 0 -17 -4 -20 -9z"/>
<path d="M1251 4368 c-1 -11 -9 -18 -21 -18 -11 0 -20 -5 -20 -11 0 -6 9 -8
23 -3 29 9 30 9 24 31 -4 16 -5 16 -6 1z"/>
<path d="M1272 4351 c1 -16 5 -28 9 -26 6 5 0 55 -7 55 -3 0 -3 -13 -2 -29z"/>
<path d="M1329 4285 c-9 -35 -12 -70 -8 -77 4 -7 4 -15 0 -18 -5 -3 -3 -11 5
-18 12 -11 14 -3 14 53 0 37 5 76 11 87 6 11 7 24 2 29 -4 4 -15 -21 -24 -56z"/>
<path d="M1385 4321 c-3 -5 -2 -12 3 -15 5 -3 9 1 9 9 0 17 -3 19 -12 6z"/>
<path d="M1893 4320 c-86 -9 -68 -15 42 -15 57 0 102 1 101 2 -9 10 -100 17
-143 13z"/>
<path d="M1251 4304 c0 -11 3 -14 6 -6 3 7 2 16 -1 19 -3 4 -6 -2 -5 -13z"/>
<path d="M1067 4292 c-18 -20 -23 -37 -8 -27 5 3 12 1 16 -5 8 -13 25 -13 25
1 0 5 -4 7 -10 4 -16 -10 -12 11 5 25 13 11 14 10 9 -5 -5 -13 -4 -16 4 -11 7
4 10 2 7 -6 -4 -9 3 -14 17 -15 16 -2 19 0 9 6 -8 5 -10 14 -6 21 5 9 4 11 -3
6 -7 -4 -12 -1 -12 8 0 22 -33 20 -53 -2z"/>
<path d="M1161 4270 c1 -8 1 -20 0 -26 -1 -13 -31 -15 -46 -3 -6 4 -17 4 -25
-1 -12 -8 -9 -10 10 -11 l25 -1 -25 -8 c-25 -8 -25 -8 5 -10 l30 -2 -30 -8
-30 -8 28 -1 c16 0 26 -5 22 -10 -3 -5 -1 -12 4 -16 6 -3 8 4 6 16 -3 16 0 20
13 15 14 -5 13 -3 -2 9 -11 8 -17 16 -13 16 4 1 11 2 15 3 10 1 42 32 42 41 0
3 -4 4 -9 1 -5 -4 -12 0 -15 6 -4 9 -5 8 -5 -2z"/>
<path d="M4313 4213 c3 -21 1 -33 -6 -33 -7 0 -4 -5 6 -11 9 -6 15 -14 12 -19
-3 -5 -1 -11 4 -14 5 -3 11 1 15 9 3 8 1 15 -4 15 -6 0 -9 3 -9 8 1 4 1 9 -1
12 -1 3 -4 16 -6 29 -7 38 -17 40 -11 4z"/>
<path d="M1120 4133 c5 -2 8 -9 4 -14 -3 -5 0 -9 6 -9 15 0 7 23 -8 26 -7 1
-8 0 -2 -3z"/>
<path d="M1013 4094 c-9 -20 -8 -24 4 -24 8 0 12 4 9 9 -4 5 -2 11 4 13 5 1 6
8 2 15 -5 8 -11 3 -19 -13z"/>
<path d="M1040 4115 c0 -7 30 -13 34 -7 3 4 -4 9 -15 9 -10 1 -19 0 -19 -2z"/>
<path d="M1298 4113 c7 -3 16 -2 19 1 4 3 -2 6 -13 5 -11 0 -14 -3 -6 -6z"/>
<path d="M4365 4080 c-17 -19 -17 -20 1 -20 14 0 16 -2 6 -9 -10 -6 -9 -10 7
-14 16 -4 21 0 21 14 0 10 -5 19 -11 19 -8 0 -8 5 1 15 19 23 -4 18 -25 -5z"/>
<path d="M1120 4079 c0 -5 5 -7 10 -4 6 3 10 8 10 11 0 2 -4 4 -10 4 -5 0 -10
-5 -10 -11z"/>
<path d="M1057 4072 c-9 -2 -15 -8 -11 -13 3 -5 10 -6 16 -3 6 4 14 0 19 -7 5
-8 9 -9 9 -4 0 19 -15 31 -33 27z"/>
<path d="M1150 4070 c-9 -6 -10 -10 -3 -10 6 0 15 5 18 10 8 12 4 12 -15 0z"/>
<path d="M910 4050 c0 -5 5 -10 11 -10 5 0 7 5 4 10 -3 6 -8 10 -11 10 -2 0
-4 -4 -4 -10z"/>
<path d="M4335 4033 c4 -10 9 -29 10 -43 4 -41 4 -42 20 -36 12 4 14 0 9 -19
-4 -18 -2 -25 9 -25 10 0 15 12 15 41 1 33 -5 47 -29 70 -34 33 -44 37 -34 12z"/>
<path d="M1072 4001 c-11 -7 -10 -9 3 -14 9 -4 14 -3 10 2 -3 5 1 12 7 14 7 3
9 6 3 6 -5 0 -16 -3 -23 -8z"/>
<path d="M1105 3980 c-3 -5 -2 -10 4 -10 5 0 13 5 16 10 3 6 2 10 -4 10 -5 0
-13 -4 -16 -10z"/>
<path d="M813 3955 c0 -8 4 -12 9 -9 4 3 8 9 8 15 0 5 -4 9 -8 9 -5 0 -9 -7
-9 -15z"/>
<path d="M1031 3956 c-10 -12 -9 -14 10 -9 19 5 21 3 15 -13 -6 -15 -5 -17 5
-6 11 10 10 15 -2 28 -14 13 -17 13 -28 0z"/>
<path d="M1077 3955 c3 -8 9 -12 14 -9 12 7 11 11 -5 17 -10 4 -13 1 -9 -8z"/>
<path d="M915 3940 c3 -5 8 -10 11 -10 2 0 4 5 4 10 0 6 -5 10 -11 10 -5 0 -7
-4 -4 -10z"/>
<path d="M1200 3931 c0 -6 4 -13 10 -16 6 -3 7 1 4 9 -7 18 -14 21 -14 7z"/>
<path d="M980 3915 c0 -8 4 -15 10 -15 5 0 7 7 4 15 -4 8 -8 15 -10 15 -2 0
-4 -7 -4 -15z"/>
<path d="M1063 3887 c-3 -6 -1 -7 5 -3 6 3 15 -2 21 -11 9 -16 10 -16 8 3 -1
21 -23 28 -34 11z"/>
<path d="M4359 3893 c-1 -14 -7 -37 -14 -58 -3 -11 2 -6 11 10 21 35 26 55 13
55 -5 0 -9 -3 -10 -7z"/>
<path d="M4391 3874 c0 -11 3 -14 6 -6 3 7 2 16 -1 19 -3 4 -6 -2 -5 -13z"/>
<path d="M916 3865 c-3 -8 -1 -15 3 -15 5 0 11 7 15 15 3 8 1 15 -3 15 -5 0
-11 -7 -15 -15z"/>
<path d="M1110 3871 c0 -6 4 -12 8 -15 5 -3 9 1 9 9 0 8 -4 15 -9 15 -4 0 -8
-4 -8 -9z"/>
<path d="M870 3866 c0 -2 7 -9 15 -16 9 -7 15 -8 15 -2 0 5 -7 12 -15 16 -8 3
-15 4 -15 2z"/>
<path d="M795 3850 c-4 -6 3 -25 14 -43 20 -30 21 -31 21 -8 0 13 -8 30 -17
37 -10 7 -13 14 -6 14 6 0 14 -4 18 -10 3 -5 11 -8 18 -6 7 1 9 1 5 -1 -5 -3
-8 -9 -8 -15 0 -6 6 -6 15 2 12 10 18 10 30 0 12 -10 18 -9 32 5 16 17 16 17
-5 10 -13 -4 -29 -2 -37 5 -20 16 -72 23 -80 10z"/>
<path d="M1082 3830 c0 -14 2 -19 5 -12 2 6 2 18 0 25 -3 6 -5 1 -5 -13z"/>
<path d="M960 3798 c0 -12 1 -19 3 -17 1 2 9 12 16 22 12 14 11 17 -3 17 -10
0 -16 -8 -16 -22z"/>
<path d="M1120 3800 c0 -11 4 -20 9 -20 5 0 7 9 4 20 -3 11 -7 20 -9 20 -2 0
-4 -9 -4 -20z"/>
<path d="M868 3803 c6 -2 12 -9 12 -14 0 -6 -4 -7 -10 -4 -5 3 -10 1 -10 -5 0
-7 7 -9 16 -6 9 3 21 6 27 6 7 0 3 7 -7 15 -11 8 -25 15 -30 14 -6 0 -5 -3 2
-6z"/>
<path d="M4330 3780 c0 -5 5 -10 11 -10 5 0 7 5 4 10 -3 6 -8 10 -11 10 -2 0
-4 -4 -4 -10z"/>
<path d="M1045 3770 c-4 -6 -11 -7 -17 -4 -7 4 -8 2 -4 -5 6 -9 11 -9 22 0 14
11 18 19 10 19 -3 0 -8 -5 -11 -10z"/>
<path d="M875 3762 c-17 -12 -16 -39 2 -53 9 -8 14 -9 10 -2 -4 6 -3 14 2 17
5 4 12 2 16 -3 3 -5 14 -9 25 -8 10 1 16 5 14 9 -3 4 0 8 5 8 6 0 12 -15 12
-32 1 -22 3 -26 6 -13 3 11 10 26 17 34 9 12 8 13 -4 6 -13 -8 -13 -7 0 10 14
17 13 18 -15 11 -16 -4 -31 -11 -33 -16 -2 -5 -10 -6 -18 -3 -7 3 -12 9 -9 13
7 11 -19 30 -30 22z m20 -11 c3 -5 1 -12 -5 -16 -5 -3 -10 1 -10 9 0 18 6 21
15 7z"/>
<path d="M950 3759 c0 -5 5 -7 10 -4 6 3 10 8 10 11 0 2 -4 4 -10 4 -5 0 -10
-5 -10 -11z"/>
<path d="M836 3737 c3 -10 9 -15 12 -12 3 3 0 11 -7 18 -10 9 -11 8 -5 -6z"/>
<path d="M1122 3730 c0 -14 2 -19 5 -12 2 6 2 18 0 25 -3 6 -5 1 -5 -13z"/>
<path d="M922 3670 c-1 -15 4 -33 12 -39 11 -10 14 -9 12 1 -1 7 -5 19 -10 26
-4 7 -3 19 3 26 8 9 7 13 -2 13 -7 0 -14 -13 -15 -27z"/>
<path d="M4304 3673 c-10 -37 -13 -65 -5 -57 3 3 7 10 7 15 1 5 2 10 4 12 4 5
10 57 6 57 -2 0 -7 -12 -12 -27z"/>
<path d="M850 3675 c0 -5 5 -17 10 -25 5 -8 10 -10 10 -5 0 6 -5 17 -10 25 -5
8 -10 11 -10 5z"/>
<path d="M973 3664 c-16 -16 -17 -34 -3 -34 6 0 9 3 9 8 -4 21 3 23 24 6 l22
-19 -20 25 c-11 14 -20 26 -20 26 0 1 -6 -4 -12 -12z"/>
<path d="M1124 3656 c1 -8 5 -18 8 -22 4 -3 5 1 4 10 -1 8 -5 18 -8 22 -4 3
-5 -1 -4 -10z"/>
<path d="M888 3653 c7 -3 16 -2 19 1 4 3 -2 6 -13 5 -11 0 -14 -3 -6 -6z"/>
<path d="M4271 3644 c0 -11 3 -14 6 -6 3 7 2 16 -1 19 -3 4 -6 -2 -5 -13z"/>
<path d="M840 3641 c0 -18 40 -34 54 -22 7 6 17 7 21 3 5 -4 5 -1 1 6 -5 8
-13 9 -26 2 -14 -7 -23 -6 -34 6 -9 8 -16 11 -16 5z"/>
<path d="M735 3603 c3 -12 1 -24 -5 -28 -5 -3 -10 -13 -10 -22 0 -12 3 -13 14
-4 15 12 24 5 20 -16 -1 -7 -2 -20 -3 -28 0 -8 -8 -15 -16 -15 -8 0 -15 -4
-15 -10 0 -5 6 -7 14 -4 19 7 15 -24 -5 -37 -10 -6 -10 -9 -1 -9 6 0 11 -5 10
-11 -2 -6 4 -14 12 -16 9 -3 11 -1 5 4 -15 12 -18 36 -3 31 7 -3 22 -2 33 3
19 7 19 8 -2 8 -12 1 -25 6 -29 12 -4 8 1 9 17 5 24 -7 24 -7 -1 8 -25 16 -25
16 13 12 20 -3 37 0 37 5 0 5 -9 9 -21 9 -14 0 -19 5 -16 14 3 8 -1 20 -8 26
-8 7 -14 15 -13 18 1 4 -6 21 -15 37 -12 20 -16 23 -12 8z m38 -88 c-3 -9 -8
-14 -10 -11 -3 3 -2 9 2 15 9 16 15 13 8 -4z"/>
<path d="M949 3604 c-10 -13 -10 -17 0 -23 9 -6 12 -39 13 -110 0 -55 3 -101
7 -101 4 0 7 22 6 49 -2 41 0 48 14 44 14 -4 14 -4 0 6 -11 7 -15 25 -15 66 1
42 -2 55 -14 56 -8 1 -4 4 10 8 20 6 22 8 8 13 -9 4 -22 0 -29 -8z"/>
<path d="M1062 3585 c0 -16 2 -22 5 -12 2 9 2 23 0 30 -3 6 -5 -1 -5 -18z"/>
<path d="M686 3562 c-3 -5 1 -9 9 -9 8 0 12 4 9 9 -3 4 -7 8 -9 8 -2 0 -6 -4
-9 -8z"/>
<path d="M4272 3535 c0 -16 2 -22 5 -12 2 9 2 23 0 30 -3 6 -5 -1 -5 -18z"/>
<path d="M2772 3530 c0 -14 2 -19 5 -12 2 6 2 18 0 25 -3 6 -5 1 -5 -13z"/>
<path d="M921 3524 c0 -11 3 -14 6 -6 3 7 2 16 -1 19 -3 4 -6 -2 -5 -13z"/>
<path d="M845 3520 c-3 -6 1 -7 9 -4 18 7 21 14 7 14 -6 0 -13 -4 -16 -10z"/>
<path d="M899 3528 c-5 -18 -6 -38 -1 -34 7 8 12 36 6 36 -2 0 -4 -1 -5 -2z"/>
<path d="M930 3485 c-7 -9 -10 -18 -7 -21 3 -3 10 4 17 15 13 25 8 27 -10 6z"/>
<path d="M1045 3460 c-3 -6 1 -7 9 -4 18 7 21 14 7 14 -6 0 -13 -4 -16 -10z"/>
<path d="M4213 3455 c0 -8 4 -12 9 -9 5 3 6 10 3 15 -9 13 -12 11 -12 -6z"/>
<path d="M818 3453 c7 -3 16 -2 19 1 4 3 -2 6 -13 5 -11 0 -14 -3 -6 -6z"/>
<path d="M1140 3425 c-7 -9 -11 -17 -9 -20 3 -2 10 5 17 15 14 24 10 26 -8 5z"/>
<path d="M775 3420 c-4 -6 1 -7 11 -3 13 5 15 3 9 -7 -5 -9 -4 -11 3 -6 7 4
12 11 12 17 0 12 -27 12 -35 -1z"/>
<path d="M856 3421 c-3 -5 2 -15 12 -22 15 -13 16 -12 4 3 -10 13 -10 17 0 21
9 4 9 6 1 6 -6 1 -14 -3 -17 -8z"/>
<path d="M935 3410 c3 -5 8 -10 11 -10 2 0 4 5 4 10 0 6 -5 10 -11 10 -5 0 -7
-4 -4 -10z"/>
<path d="M700 3395 c0 -8 -3 -14 -7 -13 -18 3 -41 -15 -36 -28 3 -8 1 -14 -5
-14 -6 0 -13 6 -15 13 -3 7 -6 4 -6 -6 -1 -16 5 -18 37 -13 20 3 41 5 45 6 5
0 6 4 2 10 -3 5 -12 7 -19 4 -8 -3 -17 -1 -20 4 -3 5 5 8 19 7 23 -3 41 18 29
36 -8 14 -24 11 -24 -6z"/>
<path d="M4259 3378 c0 -13 -2 -30 -4 -38 -12 -58 -15 -104 -7 -95 11 11 27
155 18 155 -3 0 -6 -10 -7 -22z"/>
<path d="M915 3380 c-3 -5 1 -10 10 -10 13 0 14 -4 5 -20 -6 -11 -8 -20 -6
-20 3 0 10 9 15 19 12 21 -11 52 -24 31z"/>
<path d="M4190 3334 c-7 -30 -9 -58 -6 -61 3 -4 6 -1 6 5 0 21 2 27 10 37 7
10 12 75 5 75 -2 0 -9 -25 -15 -56z"/>
<path d="M840 3366 c0 -2 7 -7 16 -10 8 -3 12 -2 9 4 -6 10 -25 14 -25 6z"/>
<path d="M781 3352 c-6 -2 -11 -10 -11 -18 0 -8 6 -11 15 -7 10 3 15 1 13 -7
-2 -7 4 -15 12 -17 12 -4 12 -3 2 5 -20 13 -19 19 1 34 18 13 17 14 -1 14 -11
0 -25 -2 -31 -4z"/>
<path d="M735 3340 c3 -5 11 -10 16 -10 6 0 7 5 4 10 -3 6 -11 10 -16 10 -6 0
-7 -4 -4 -10z"/>
<path d="M835 3330 c-16 -7 -17 -9 -3 -9 9 -1 20 4 23 9 7 11 7 11 -20 0z"/>
<path d="M887 3329 c7 -7 15 -10 18 -7 3 3 -2 9 -12 12 -14 6 -15 5 -6 -5z"/>
<path d="M680 3280 c0 -5 5 -10 10 -10 6 0 10 5 10 10 0 6 -4 10 -10 10 -5 0
-10 -4 -10 -10z"/>
<path d="M780 3280 c0 -5 5 -10 11 -10 5 0 7 5 4 10 -3 6 -8 10 -11 10 -2 0
-4 -4 -4 -10z"/>
<path d="M830 3281 c0 -8 41 -23 47 -17 2 1 -8 8 -22 14 -14 6 -25 8 -25 3z"/>
<path d="M940 3281 c0 -7 -5 -9 -12 -5 -7 5 -8 3 -3 -5 5 -9 10 -10 18 -2 6 6
8 14 4 18 -4 3 -7 1 -7 -6z"/>
<path d="M965 3280 c-3 -5 -1 -18 5 -27 11 -17 11 -16 5 1 -3 11 0 23 7 28 9
5 10 8 1 8 -6 0 -15 -4 -18 -10z"/>
<path d="M730 3270 c0 -5 7 -7 15 -4 8 4 15 8 15 10 0 2 -7 4 -15 4 -8 0 -15
-4 -15 -10z"/>
<path d="M2846 3265 c4 -8 8 -15 10 -15 2 0 4 7 4 15 0 8 -4 15 -10 15 -5 0
-7 -7 -4 -15z"/>
<path d="M735 3250 c-6 -10 1 -14 19 -11 5 1 6 -14 3 -33 -7 -43 1 -50 28 -23
17 17 17 19 3 14 -13 -5 -18 -1 -18 12 0 41 -20 65 -35 41z"/>
<path d="M792 3253 c-10 -4 -10 -8 -1 -19 6 -8 17 -14 23 -14 6 0 4 5 -4 10
-13 9 -13 11 0 20 16 10 4 12 -18 3z"/>
<path d="M900 3213 l-25 -13 27 3 c30 3 44 12 31 19 -4 3 -19 -1 -33 -9z"/>
<path d="M971 3221 c-11 -7 -12 -16 -4 -43 8 -25 11 -27 12 -11 1 12 7 24 14
26 7 3 4 6 -7 6 -15 1 -16 4 -6 16 14 17 11 19 -9 6z"/>
<path d="M3040 3197 c0 -9 4 -18 9 -21 5 -4 8 1 7 9 -3 21 -16 31 -16 12z"/>
<path d="M2240 3159 c0 -24 -4 -30 -15 -25 -8 3 -15 1 -15 -4 0 -6 9 -10 20
-10 16 0 20 7 20 35 0 19 -2 35 -5 35 -3 0 -5 -14 -5 -31z"/>
<path d="M1005 3170 c3 -5 8 -10 11 -10 2 0 4 5 4 10 0 6 -5 10 -11 10 -5 0
-7 -4 -4 -10z"/>
<path d="M2465 3170 c-3 -5 -1 -10 4 -10 6 0 11 5 11 10 0 6 -2 10 -4 10 -3 0
-8 -4 -11 -10z"/>
<path d="M2851 3164 c0 -11 3 -14 6 -6 3 7 2 16 -1 19 -3 4 -6 -2 -5 -13z"/>
<path d="M790 3160 c0 -5 5 -10 11 -10 5 0 7 5 4 10 -3 6 -8 10 -11 10 -2 0
-4 -4 -4 -10z"/>
<path d="M844 3143 c2 -10 -2 -22 -8 -26 -7 -6 -6 -7 3 -5 16 5 24 35 11 43
-5 3 -7 -3 -6 -12z"/>
<path d="M1350 3141 c0 -6 4 -13 10 -16 6 -3 7 1 4 9 -7 18 -14 21 -14 7z"/>
<path d="M770 3125 c0 -8 2 -15 4 -15 2 0 6 7 10 15 3 8 1 15 -4 15 -6 0 -10
-7 -10 -15z"/>
<path d="M948 3123 c6 -2 10 -9 6 -14 -3 -5 -1 -9 5 -9 17 0 21 18 5 24 -9 3
-19 6 -22 5 -4 0 -1 -3 6 -6z"/>
<path d="M2371 3088 c-10 -30 -9 -31 4 -14 8 11 15 26 15 33 0 22 -8 14 -19
-19z"/>
<path d="M1111 3084 c0 -11 3 -14 6 -6 3 7 2 16 -1 19 -3 4 -6 -2 -5 -13z"/>
<path d="M3046 3067 c3 -10 9 -15 12 -12 3 3 0 11 -7 18 -10 9 -11 8 -5 -6z"/>
<path d="M762 3040 c1 -16 5 -30 11 -30 5 0 6 12 3 26 -5 18 -3 24 5 18 8 -4
9 -3 5 4 -13 21 -25 12 -24 -18z"/>
<path d="M958 3063 c7 -3 16 -2 19 1 4 3 -2 6 -13 5 -11 0 -14 -3 -6 -6z"/>
<path d="M923 3035 c0 -8 4 -12 9 -9 4 3 8 9 8 15 0 5 -4 9 -8 9 -5 0 -9 -7
-9 -15z"/>
<path d="M2341 3023 c-10 -26 -10 -27 4 -9 8 11 15 23 15 28 0 15 -7 8 -19
-19z"/>
<path d="M1016 3031 c-18 -7 -18 -8 4 -14 27 -7 39 -1 24 12 -5 5 -18 5 -28 2z"/>
<path d="M1100 3026 c7 -7 13 -7 20 0 6 6 3 10 -10 10 -13 0 -16 -4 -10 -10z"/>
<path d="M4190 3032 c0 -16 13 -20 35 -11 11 4 15 8 8 8 -6 1 -18 4 -27 7 -9
3 -16 1 -16 -4z"/>
<path d="M953 3017 c0 -8 6 -14 14 -14 7 0 13 6 13 14 0 7 -6 13 -13 13 -8 0
-14 -6 -14 -13z"/>
<path d="M716 3003 c-6 -14 -5 -15 5 -6 7 7 10 15 7 18 -3 3 -9 -2 -12 -12z"/>
<path d="M820 3016 c0 -2 7 -9 15 -16 13 -11 14 -10 9 4 -5 14 -24 23 -24 12z"/>
<path d="M875 3010 c-3 -6 1 -7 9 -4 18 7 21 14 7 14 -6 0 -13 -4 -16 -10z"/>
<path d="M749 2973 c0 -11 -3 -13 -6 -5 -6 15 -33 16 -33 1 0 -5 5 -7 10 -4
14 9 13 -8 -2 -23 -17 -17 -2 -15 27 4 14 9 25 23 25 30 0 21 -20 17 -21 -3z"/>
<path d="M964 2960 c-1 -31 10 -40 19 -16 3 8 0 21 -6 30 -10 14 -12 12 -13
-14z"/>
<path d="M795 2970 c3 -5 10 -10 16 -10 5 0 9 5 9 10 0 6 -7 10 -16 10 -8 0
-12 -4 -9 -10z"/>
<path d="M1046 2965 c4 -8 11 -15 16 -15 6 0 5 6 -2 15 -7 8 -14 15 -16 15 -2
0 -1 -7 2 -15z"/>
<path d="M2320 2970 c0 -5 5 -10 11 -10 5 0 7 5 4 10 -3 6 -8 10 -11 10 -2 0
-4 -4 -4 -10z"/>
<path d="M2460 2970 c-9 -6 -10 -10 -3 -10 6 0 15 5 18 10 8 12 4 12 -15 0z"/>
<path d="M2931 2971 c-10 -6 -10 -10 -1 -16 13 -8 24 -1 19 14 -3 6 -10 7 -18
2z"/>
<path d="M650 2950 c13 -9 13 -11 0 -20 -12 -8 -11 -10 8 -10 20 0 21 3 12 20
-6 11 -16 20 -23 20 -8 0 -6 -4 3 -10z"/>
<path d="M781 2948 c-1 -10 5 -18 13 -18 8 0 16 -8 18 -17 3 -15 5 -14 10 5 3
12 2 20 -3 16 -5 -3 -9 0 -9 6 0 6 -4 9 -9 6 -5 -4 -12 0 -14 6 -3 8 -6 6 -6
-4z"/>
<path d="M890 2950 c-9 -6 -10 -10 -3 -10 6 0 15 5 18 10 8 12 4 12 -15 0z"/>
<path d="M2306 2935 c-9 -26 -7 -32 5 -12 6 10 9 21 6 23 -2 3 -7 -2 -11 -11z"/>
<path d="M2460 2939 c0 -5 5 -7 10 -4 6 3 10 8 10 11 0 2 -4 4 -10 4 -5 0 -10
-5 -10 -11z"/>
<path d="M2580 2931 c0 -10 19 -25 25 -20 1 2 -3 10 -11 17 -8 7 -14 8 -14 3z"/>
<path d="M2942 2910 c0 -19 2 -27 5 -17 2 9 2 25 0 35 -3 9 -5 1 -5 -18z"/>
<path d="M700 2901 c13 -26 27 -34 35 -21 4 6 11 8 16 5 5 -4 9 1 9 9 0 19
-11 20 -29 4 -11 -11 -13 -10 -8 5 5 12 1 17 -14 17 -16 0 -18 -3 -9 -19z"/>
<path d="M896 2907 c3 -10 9 -15 12 -12 3 3 0 11 -7 18 -10 9 -11 8 -5 -6z"/>
<path d="M955 2910 c-3 -5 1 -10 10 -10 9 0 13 5 10 10 -3 6 -8 10 -10 10 -2
0 -7 -4 -10 -10z"/>
<path d="M2032 2895 c0 -16 2 -22 5 -12 2 9 2 23 0 30 -3 6 -5 -1 -5 -18z"/>
<path d="M1193 2895 c0 -8 4 -12 9 -9 5 3 6 10 3 15 -9 13 -12 11 -12 -6z"/>
<path d="M773 2887 c4 -11 1 -15 -13 -12 -10 2 -21 -3 -24 -11 -3 -8 -13 -14
-23 -15 -13 0 -12 -3 6 -10 24 -9 24 -10 7 -27 -13 -12 -20 -14 -23 -5 -3 10
-7 10 -17 1 -15 -14 2 -40 19 -30 5 3 20 7 33 8 17 2 22 -1 18 -12 -3 -7 -1
-24 4 -36 9 -21 9 -20 7 7 -2 25 2 30 20 29 15 -1 20 3 16 13 -5 12 -7 12 -14
1 -7 -10 -9 -10 -9 0 0 6 -3 11 -7 11 -5 -1 -17 -1 -28 0 -18 1 -18 2 -3 18
12 12 21 13 30 6 7 -6 21 -7 31 -4 18 6 18 8 2 21 -9 7 -15 9 -13 3 2 -6 -1
-11 -7 -12 -12 -1 -12 16 0 43 8 19 9 19 17 0 8 -18 8 -18 5 1 -1 11 -11 21
-21 23 -14 3 -17 0 -13 -11z m-9 -36 c3 -5 -1 -11 -9 -15 -15 -6 -29 7 -18 18
9 9 21 8 27 -3z"/>
<path d="M1110 2892 c0 -5 7 -9 15 -9 8 0 12 4 9 9 -3 4 -9 8 -15 8 -5 0 -9
-4 -9 -8z"/>
<path d="M2281 2869 c-6 -18 -11 -37 -10 -43 0 -6 7 7 15 28 8 22 12 41 10 43
-2 2 -9 -10 -15 -28z"/>
<path d="M827 2879 c7 -7 15 -10 18 -7 3 3 -2 9 -12 12 -14 6 -15 5 -6 -5z"/>
<path d="M956 2878 c3 -5 10 -6 15 -3 13 9 11 12 -6 12 -8 0 -12 -4 -9 -9z"/>
<path d="M966 2861 c-17 -6 -17 -8 -4 -14 10 -3 19 0 22 9 3 8 4 14 3 13 -1 0
-11 -4 -21 -8z"/>
<path d="M1119 2839 c-4 -27 -1 -35 8 -32 14 6 15 18 4 48 -7 16 -9 14 -12
-16z"/>
<path d="M3053 2855 c0 -8 4 -12 9 -9 5 3 6 10 3 15 -9 13 -12 11 -12 -6z"/>
<path d="M828 2843 c7 -3 16 -2 19 1 4 3 -2 6 -13 5 -11 0 -14 -3 -6 -6z"/>
<path d="M861 2834 c0 -11 3 -14 6 -6 3 7 2 16 -1 19 -3 4 -6 -2 -5 -13z"/>
<path d="M2461 2824 c0 -11 3 -14 6 -6 3 7 2 16 -1 19 -3 4 -6 -2 -5 -13z"/>
<path d="M971 2808 c-1 -18 6 -31 20 -38 11 -7 23 -9 27 -6 3 3 -1 6 -9 6 -12
0 -11 2 1 11 12 8 10 9 -7 4 -18 -5 -22 -1 -26 22 l-4 28 -2 -27z"/>
<path d="M2260 2793 c0 -27 -54 -73 -86 -73 -16 0 -23 4 -18 11 4 8 1 8 -13 1
-27 -15 -52 2 -46 30 4 21 3 21 -7 5 -7 -10 -9 -21 -6 -24 3 -4 1 -11 -4 -18
-7 -8 -6 -12 3 -12 6 0 32 -3 56 -6 57 -9 117 22 127 65 3 16 3 32 0 35 -3 4
-6 -3 -6 -14z"/>
<path d="M926 2791 c-12 -5 -15 -10 -9 -14 6 -4 16 0 23 8 14 17 13 17 -14 6z"/>
<path d="M1131 2784 c0 -11 3 -14 6 -6 3 7 2 16 -1 19 -3 4 -6 -2 -5 -13z"/>
<path d="M2456 2785 c4 -8 8 -15 10 -15 2 0 4 7 4 15 0 8 -4 15 -10 15 -5 0
-7 -7 -4 -15z"/>
<path d="M1176 2755 c-9 -26 -7 -32 5 -12 6 10 9 21 6 23 -2 3 -7 -2 -11 -11z"/>
<path d="M1056 2745 c4 -8 10 -15 15 -15 4 0 6 7 3 15 -4 8 -10 15 -15 15 -4
0 -6 -7 -3 -15z"/>
<path d="M1134 2736 c-3 -14 -3 -29 0 -35 4 -5 2 -13 -4 -16 -8 -5 -7 -11 1
-21 6 -7 8 -21 5 -30 -5 -14 -4 -15 8 -5 11 9 12 19 6 37 -7 17 -6 24 3 24 9
0 9 2 0 8 -7 5 -10 19 -8 35 7 34 -2 36 -11 3z"/>
<path d="M820 2729 c0 -18 2 -19 15 -5 8 8 15 17 15 20 0 3 -7 6 -15 6 -9 0
-15 -9 -15 -21z"/>
<path d="M953 2736 c0 -8 5 -14 11 -13 6 1 10 -4 9 -10 -2 -7 2 -13 7 -13 15
0 12 16 -6 34 -19 20 -21 20 -21 2z"/>
<path d="M883 2712 c0 -12 5 -22 9 -22 11 0 10 12 -2 30 -7 12 -9 10 -7 -8z"/>
<path d="M2705 2710 c10 -11 20 -20 23 -20 3 0 -3 9 -13 20 -10 11 -20 20 -23
20 -3 0 3 -9 13 -20z"/>
<path d="M2596 2707 c3 -10 9 -15 12 -12 3 3 0 11 -7 18 -10 9 -11 8 -5 -6z"/>
<path d="M755 2690 c2 -11 -2 -20 -8 -20 -7 0 -13 -9 -14 -20 -1 -11 2 -18 7
-15 5 3 12 0 15 -5 5 -8 13 -6 25 5 12 11 27 15 42 10 18 -5 20 -4 8 4 -13 9
-12 12 7 17 13 4 20 10 17 16 -3 5 -13 4 -22 -4 -13 -11 -15 -10 -9 5 4 11 3
16 -4 12 -6 -4 -8 -12 -6 -19 3 -6 -7 -12 -25 -13 -16 -1 -26 2 -23 7 4 6 13
10 22 10 13 0 13 3 3 15 -18 22 -40 19 -35 -5z m25 -45 c0 -12 -19 -12 -23 0
-4 9 -1 12 9 8 7 -3 14 -7 14 -8z"/>
<path d="M918 2692 c-31 -19 -42 -38 -27 -48 6 -3 13 3 16 14 7 26 33 37 33
14 0 -13 2 -14 9 -3 5 8 14 10 21 6 9 -5 11 -4 6 3 -4 7 -14 12 -22 12 -8 0
-12 5 -9 10 8 12 6 12 -27 -8z"/>
<path d="M1170 2696 c0 -2 8 -10 18 -17 15 -13 16 -12 3 4 -13 16 -21 21 -21
13z"/>
<path d="M2046 2660 c-21 -53 -20 -82 4 -131 l21 -40 -28 6 c-16 3 -5 -5 27
-20 30 -15 71 -29 90 -31 29 -4 26 -1 -18 15 -29 10 -54 20 -56 22 -10 14 -46
101 -46 113 0 7 7 33 15 56 20 56 13 63 -9 10z"/>
<path d="M1806 2665 c10 -8 24 -14 29 -14 6 0 1 6 -9 14 -11 8 -24 15 -30 15
-5 0 -1 -7 10 -15z"/>
<path d="M1166 2657 c3 -10 9 -15 12 -12 3 3 0 11 -7 18 -10 9 -11 8 -5 -6z"/>
<path d="M970 2645 c0 -8 4 -15 10 -15 5 0 7 7 4 15 -4 8 -8 15 -10 15 -2 0
-4 -7 -4 -15z"/>
<path d="M946 2637 c3 -10 9 -15 12 -12 3 3 0 11 -7 18 -10 9 -11 8 -5 -6z"/>
<path d="M1175 2611 c-3 -5 -2 -12 3 -15 5 -3 9 1 9 9 0 17 -3 19 -12 6z"/>
<path d="M1905 2590 c10 -11 20 -20 23 -20 3 0 -3 9 -13 20 -10 11 -20 20 -23
20 -3 0 3 -9 13 -20z"/>
<path d="M2343 2595 c0 -8 4 -15 9 -15 4 0 8 4 8 9 0 6 -4 12 -8 15 -5 3 -9
-1 -9 -9z"/>
<path d="M2842 2590 c0 -14 2 -19 5 -12 2 6 2 18 0 25 -3 6 -5 1 -5 -13z"/>
<path d="M1065 2590 c-3 -5 -1 -10 4 -10 6 0 11 5 11 10 0 6 -2 10 -4 10 -3 0
-8 -4 -11 -10z"/>
<path d="M970 2570 c0 -5 5 -10 10 -10 6 0 10 5 10 10 0 6 -4 10 -10 10 -5 0
-10 -4 -10 -10z"/>
<path d="M1120 2559 c0 -5 5 -7 10 -4 6 3 10 2 10 -3 0 -5 7 -9 15 -9 11 0 12
4 4 14 -14 16 -39 17 -39 2z"/>
<path d="M1948 2558 c22 -22 13 -29 -15 -12 -27 16 -27 16 2 -9 17 -14 40 -27
53 -30 22 -4 21 -2 -9 29 -18 19 -35 34 -38 34 -3 0 0 -5 7 -12z"/>
<path d="M885 2550 c-3 -5 -2 -10 4 -10 5 0 13 5 16 10 3 6 2 10 -4 10 -5 0
-13 -4 -16 -10z"/>
<path d="M930 2546 c7 -7 13 -7 20 0 6 6 3 10 -10 10 -13 0 -16 -4 -10 -10z"/>
<path d="M2656 2552 c-3 -5 1 -9 9 -9 8 0 12 4 9 9 -3 4 -7 8 -9 8 -2 0 -6 -4
-9 -8z"/>
<path d="M835 2539 c-11 -16 -1 -19 13 -3 7 8 8 14 3 14 -5 0 -13 -5 -16 -11z"/>
<path d="M1062 2520 c0 -14 2 -19 5 -12 2 6 2 18 0 25 -3 6 -5 1 -5 -13z"/>
<path d="M2835 2531 c-3 -5 -1 -12 5 -16 5 -3 10 1 10 9 0 18 -6 21 -15 7z"/>
<path d="M875 2520 c3 -5 8 -10 11 -10 2 0 4 5 4 10 0 6 -5 10 -11 10 -5 0 -7
-4 -4 -10z"/>
<path d="M2587 2519 c7 -7 15 -10 18 -7 3 3 -2 9 -12 12 -14 6 -15 5 -6 -5z"/>
<path d="M4166 2516 c4 -9 1 -16 -6 -16 -9 0 -9 -4 -3 -12 6 -7 9 -26 7 -43
-2 -25 0 -23 10 10 12 37 16 40 53 43 23 2 58 -4 78 -12 46 -20 50 -20 32 -1
-17 16 -55 26 -112 28 -22 1 -46 6 -52 10 -9 6 -11 3 -7 -7z"/>
<path d="M1032 2474 c10 -10 20 -16 22 -13 3 3 -5 11 -17 18 -21 13 -21 12 -5
-5z"/>
<path d="M2839 2409 c0 -35 -2 -72 -4 -82 -2 -10 2 -16 8 -14 8 2 11 28 8 78
-4 93 -11 103 -12 18z"/>
<path d="M2926 2435 c4 -8 10 -15 15 -15 4 0 6 7 3 15 -4 8 -10 15 -15 15 -4
0 -6 -7 -3 -15z"/>
<path d="M2200 2437 c0 -2 31 -16 69 -31 71 -28 123 -73 154 -133 19 -35 64
-220 72 -293 3 -30 8 -71 10 -90 2 -19 7 -93 11 -165 5 -98 11 -135 23 -150
39 -48 42 -63 37 -188 -2 -67 -2 -106 0 -85 l5 36 87 8 c48 5 96 7 106 6 11
-1 26 4 36 13 43 39 155 56 219 34 19 -7 54 -8 87 -4 l55 7 -33 22 c-18 12
-41 25 -50 28 -22 9 -57 82 -65 135 -3 24 -12 44 -21 48 -12 4 -13 3 -2 -10
15 -19 -3 -47 -26 -38 -8 3 -14 0 -14 -6 0 -6 -11 -11 -25 -11 -14 0 -25 3
-25 8 0 6 -56 8 -62 2 -3 -2 -44 -6 -87 -9 -13 0 -21 -4 -18 -8 4 -3 1 -13 -6
-21 -10 -13 -8 -14 11 -8 12 4 22 3 22 -2 0 -10 -27 -13 -49 -6 -11 4 -10 8 5
19 12 9 14 14 6 15 -7 0 -11 4 -8 9 3 5 -1 12 -10 15 -8 3 -12 10 -9 16 4 6
11 7 17 4 7 -4 8 -2 4 5 -5 8 -12 9 -19 3 -7 -5 -20 -8 -30 -6 -17 2 -17 1 -4
-14 8 -9 18 -27 21 -39 6 -19 3 -23 -13 -23 -23 0 -27 10 -10 27 9 9 7 11 -7
8 -11 -1 -18 -8 -17 -14 2 -6 0 -11 -5 -12 -4 0 -20 -2 -37 -4 -24 -4 -26 -3
-10 5 18 8 18 10 -2 14 -18 3 -33 18 -28 27 4 5 -1 9 -9 9 -21 0 -30 39 -17
73 9 22 8 26 -2 21 -9 -6 -9 -5 0 8 7 8 11 17 9 19 -8 8 -33 187 -42 299 -3
47 -8 87 -10 89 -2 2 1 12 7 22 7 15 6 19 -5 19 -8 0 -18 5 -22 12 -4 6 -3 8
4 5 5 -4 2 10 -8 30 -10 21 -21 52 -24 69 -6 29 -33 67 -83 117 -17 17 -17 18
2 12 16 -5 17 -5 5 3 -8 6 -17 9 -21 6 -4 -2 -31 7 -61 21 -46 22 -88 32 -88
22z m510 -868 c6 -10 7 -19 3 -19 -4 0 -13 11 -20 25 -13 29 2 24 17 -6z"/>
<path d="M1000 2384 c0 -8 5 -12 10 -9 6 4 8 11 5 16 -9 14 -15 11 -15 -7z"/>
<path d="M2931 2374 c0 -11 3 -14 6 -6 3 7 2 16 -1 19 -3 4 -6 -2 -5 -13z"/>
<path d="M4144 2363 c2 -9 10 -17 20 -19 13 -2 14 1 7 10 -6 7 -8 16 -4 19 3
4 -1 7 -9 7 -9 0 -15 -7 -14 -17z"/>
<path d="M752 2340 c-7 -11 -8 -20 -3 -20 9 0 24 30 18 36 -1 2 -8 -6 -15 -16z"/>
<path d="M2067 2287 c-69 -55 -127 -107 -120 -107 5 0 24 15 43 32 19 18 54
45 78 60 40 26 51 38 35 38 -5 -1 -20 -11 -36 -23z"/>
<path d="M2917 2273 c-4 -20 -4 -39 -2 -42 3 -2 5 3 5 12 0 10 5 17 11 17 6 0
8 7 5 17 -4 9 -1 20 6 25 10 6 9 8 -3 8 -11 0 -18 -12 -22 -37z"/>
<path d="M2837 2280 c-3 -11 -1 -23 4 -26 5 -3 9 6 9 20 0 31 -6 34 -13 6z"/>
<path d="M2473 2268 c1 -15 6 -23 11 -18 4 4 4 16 -2 26 -9 16 -10 14 -9 -8z"/>
<path d="M2482 2227 c-6 -7 -7 -19 -3 -26 6 -9 10 -5 13 13 6 30 5 31 -10 13z"/>
<path d="M2745 2230 c-3 -6 1 -7 9 -4 18 7 21 14 7 14 -6 0 -13 -4 -16 -10z"/>
<path d="M2937 2222 c5 -10 8 -11 13 -2 5 7 13 9 20 5 8 -5 11 -4 6 3 -10 16
-45 11 -39 -6z"/>
<path d="M3051 2204 c0 -11 3 -14 6 -6 3 7 2 16 -1 19 -3 4 -6 -2 -5 -13z"/>
<path d="M3000 2179 c0 -5 5 -7 10 -4 6 3 10 8 10 11 0 2 -4 4 -10 4 -5 0 -10
-5 -10 -11z"/>
<path d="M2837 2174 c-5 -5 1 -55 8 -62 1 -2 3 13 3 32 0 37 -1 40 -11 30z"/>
<path d="M2915 2160 c3 -5 8 -10 11 -10 2 0 4 5 4 10 0 6 -5 10 -11 10 -5 0
-7 -4 -4 -10z"/>
<path d="M1386 2095 c3 -38 8 -72 10 -74 8 -9 2 105 -7 124 -6 13 -7 -4 -3
-50z"/>
<path d="M3051 2114 c0 -11 3 -14 6 -6 3 7 2 16 -1 19 -3 4 -6 -2 -5 -13z"/>
<path d="M1741 2071 c-11 -27 -21 -56 -20 -63 0 -7 5 -2 11 12 6 14 17 40 25
58 8 19 13 36 10 38 -2 3 -14 -18 -26 -45z"/>
<path d="M2966 2111 c-3 -5 1 -14 9 -21 12 -10 15 -10 15 3 0 19 -16 31 -24
18z"/>
<path d="M2920 2086 c0 -8 4 -17 9 -20 5 -4 7 3 4 14 -6 23 -13 26 -13 6z"/>
<path d="M3033 2083 c9 -2 15 -8 12 -13 -3 -5 -1 -11 5 -15 5 -3 10 3 10 14 0
15 -6 21 -22 20 -18 -1 -19 -2 -5 -6z"/>
<path d="M2960 2061 c0 -6 5 -13 10 -16 6 -4 8 -10 6 -14 -3 -4 1 -8 9 -8 8 0
13 3 10 5 -3 3 1 12 8 20 8 11 8 14 0 9 -6 -4 -14 -3 -18 3 -8 13 -25 13 -25
1z"/>
<path d="M2541 2044 c0 -11 3 -14 6 -6 3 7 2 16 -1 19 -3 4 -6 -2 -5 -13z"/>
<path d="M2718 2043 c7 -3 16 -2 19 1 4 3 -2 6 -13 5 -11 0 -14 -3 -6 -6z"/>
<path d="M2876 2038 c3 -5 10 -6 15 -3 13 9 11 12 -6 12 -8 0 -12 -4 -9 -9z"/>
<path d="M2915 2040 c4 -6 11 -8 16 -5 14 9 11 15 -7 15 -8 0 -12 -5 -9 -10z"/>
<path d="M2839 2014 c-1 -10 0 -23 1 -29 2 -5 2 -19 2 -30 -1 -16 1 -17 8 -5
5 8 7 28 4 45 -6 36 -14 45 -15 19z"/>
<path d="M1401 1994 c0 -11 3 -14 6 -6 3 7 2 16 -1 19 -3 4 -6 -2 -5 -13z"/>
<path d="M2970 1994 c0 -8 5 -12 10 -9 6 3 10 10 10 16 0 5 -4 9 -10 9 -5 0
-10 -7 -10 -16z"/>
<path d="M3256 2001 c-7 -11 18 -33 27 -24 4 3 7 12 7 20 0 15 -26 18 -34 4z"/>
<path d="M2770 1989 c0 -5 5 -7 10 -4 6 3 10 8 10 11 0 2 -4 4 -10 4 -5 0 -10
-5 -10 -11z"/>
<path d="M2925 1980 c-4 -6 -11 -7 -17 -4 -7 4 -8 2 -4 -5 6 -9 11 -9 22 0 14
11 18 19 10 19 -3 0 -8 -5 -11 -10z"/>
<path d="M2589 1963 c-1 -10 -2 -33 -4 -50 -1 -18 1 -33 6 -33 5 0 9 23 9 50
0 46 -9 72 -11 33z"/>
<path d="M1406 1925 c7 -70 35 -188 47 -200 8 -9 5 21 -6 60 -2 6 -9 37 -16
70 -21 100 -31 128 -25 70z"/>
<path d="M3052 1950 c0 -14 2 -19 5 -12 2 6 2 18 0 25 -3 6 -5 1 -5 -13z"/>
<path d="M3255 1961 c-10 -10 -4 -17 15 -18 11 -1 18 2 15 7 -3 4 1 10 7 13 7
3 3 4 -10 4 -13 -1 -25 -3 -27 -6z"/>
<path d="M3306 1953 c-6 -14 -5 -15 5 -6 7 7 10 15 7 18 -3 3 -9 -2 -12 -12z"/>
<path d="M2520 1950 c0 -5 5 -10 11 -10 5 0 7 5 4 10 -3 6 -8 10 -11 10 -2 0
-4 -4 -4 -10z"/>
<path d="M2754 1949 c-4 -7 -3 -9 4 -5 6 3 13 -2 15 -11 4 -16 5 -16 6 -1 1
21 -15 32 -25 17z"/>
<path d="M3490 1940 c0 -21 30 -42 46 -32 6 4 10 17 10 30 0 17 -6 22 -28 22
-21 0 -28 -5 -28 -20z"/>
<path d="M1707 1943 c-4 -3 -7 -14 -7 -24 0 -20 -50 -151 -86 -225 -14 -28
-27 -68 -30 -90 -4 -34 -1 -31 21 26 14 36 30 74 35 85 5 11 14 38 21 60 7 22
18 49 25 61 12 17 36 114 29 114 -1 0 -5 -3 -8 -7z"/>
<path d="M2846 1918 c3 -5 10 -6 15 -3 13 9 11 12 -6 12 -8 0 -12 -4 -9 -9z"/>
<path d="M3000 1919 c0 -5 5 -7 10 -4 6 3 10 8 10 11 0 2 -4 4 -10 4 -5 0 -10
-5 -10 -11z"/>
<path d="M2910 1910 c-9 -6 -10 -10 -3 -10 6 0 15 5 18 10 8 12 4 12 -15 0z"/>
<path d="M3043 1905 c0 -8 4 -15 9 -15 4 0 8 7 8 15 0 8 -4 15 -8 15 -5 0 -9
-7 -9 -15z"/>
<path d="M2772 1890 c0 -14 2 -19 5 -12 2 6 2 18 0 25 -3 6 -5 1 -5 -13z"/>
<path d="M2958 1903 c7 -3 16 -2 19 1 4 3 -2 6 -13 5 -11 0 -14 -3 -6 -6z"/>
<path d="M973 1866 c0 -15 21 -16 34 -1 4 4 2 5 -4 1 -7 -4 -13 -2 -13 3 0 6
-4 11 -8 11 -5 0 -9 -6 -9 -14z"/>
<path d="M3045 1870 c3 -5 8 -10 11 -10 2 0 4 5 4 10 0 6 -5 10 -11 10 -5 0
-7 -4 -4 -10z"/>
<path d="M889 1853 c-13 -16 -12 -17 4 -4 9 7 17 15 17 17 0 8 -8 3 -21 -13z"/>
<path d="M2578 1830 c-2 -23 1 -45 7 -50 8 -6 11 4 10 35 -1 58 -12 67 -17 15z"/>
<path d="M2770 1839 c0 -11 4 -18 10 -14 5 3 7 12 3 20 -7 21 -13 19 -13 -6z"/>
<path d="M2955 1850 c-3 -6 1 -7 9 -4 18 7 21 14 7 14 -6 0 -13 -4 -16 -10z"/>
<path d="M2736 1841 c-3 -5 2 -15 12 -22 15 -12 16 -12 5 2 -7 9 -10 19 -6 22
3 4 4 7 0 7 -3 0 -8 -4 -11 -9z"/>
<path d="M850 1819 c0 -5 5 -7 10 -4 6 3 10 8 10 11 0 2 -4 4 -10 4 -5 0 -10
-5 -10 -11z"/>
<path d="M3062 1821 c-8 -5 -12 -17 -10 -27 2 -15 5 -13 15 9 14 30 14 30 -5
18z"/>
<path d="M2851 1816 c2 -2 15 -9 29 -15 24 -11 24 -11 6 3 -16 13 -49 24 -35
12z"/>
<path d="M833 1783 c-4 -10 -11 -22 -17 -26 -7 -5 -3 -6 9 -3 20 6 20 6 1 -9
-21 -16 -19 -17 26 -20 15 -1 25 2 22 7 -3 5 -13 7 -23 4 -12 -5 -11 -2 3 9
17 13 18 15 3 15 -9 0 -17 5 -17 10 0 6 10 10 23 10 18 0 19 2 7 10 -22 14
-30 12 -37 -7z"/>
<path d="M894 1789 c-3 -6 6 -23 22 -37 20 -19 26 -22 21 -8 -4 10 -7 20 -7
22 0 3 -4 2 -10 -1 -9 -6 -14 8 -11 28 2 11 -7 9 -15 -4z"/>
<path d="M2844 1792 c-9 -5 -8 -11 2 -20 12 -11 14 -9 14 8 0 22 0 23 -16 12z"/>
<path d="M1008 1767 c2 -10 5 -16 6 -15 1 2 7 10 13 18 10 13 8 16 -6 16 -13
0 -17 -6 -13 -19z"/>
<path d="M2690 1750 c0 -5 5 -10 10 -10 6 0 10 5 10 10 0 6 -4 10 -10 10 -5 0
-10 -4 -10 -10z"/>
<path d="M3022 1718 c-10 -30 -10 -31 3 -14 13 17 21 46 12 46 -1 0 -8 -15
-15 -32z"/>
<path d="M2772 1710 c0 -14 2 -19 5 -12 2 6 2 18 0 25 -3 6 -5 1 -5 -13z"/>
<path d="M1086 1705 c4 -8 11 -15 16 -15 6 0 5 6 -2 15 -7 8 -14 15 -16 15 -2
0 -1 -7 2 -15z"/>
<path d="M1048 1693 c7 -3 16 -2 19 1 4 3 -2 6 -13 5 -11 0 -14 -3 -6 -6z"/>
<path d="M1045 1670 c-3 -6 1 -7 9 -4 18 7 21 14 7 14 -6 0 -13 -4 -16 -10z"/>
<path d="M2664 1642 c4 -3 14 -7 22 -8 9 -1 13 0 10 4 -4 3 -14 7 -22 8 -9 1
-13 0 -10 -4z"/>
<path d="M1122 1598 c7 -12 21 -30 31 -40 16 -17 17 -17 17 2 0 11 -6 20 -14
20 -8 0 -18 9 -21 20 -3 11 -11 20 -16 20 -5 0 -4 -10 3 -22z"/>
<path d="M2826 1612 c-3 -5 1 -9 9 -9 8 0 12 4 9 9 -3 4 -7 8 -9 8 -2 0 -6 -4
-9 -8z"/>
<path d="M2957 1609 c7 -7 15 -10 18 -7 3 3 -2 9 -12 12 -14 6 -15 5 -6 -5z"/>
<path d="M1183 1595 c-3 -9 -3 -18 -1 -21 3 -3 8 4 11 16 6 23 -1 27 -10 5z"/>
<path d="M1240 1582 c0 -7 -9 -12 -20 -12 -11 0 -20 -4 -20 -9 0 -11 38 -2 46
11 3 5 3 12 0 15 -3 4 -6 1 -6 -5z"/>
<path d="M2580 1582 c0 -5 7 -9 15 -9 8 0 12 4 9 9 -3 4 -9 8 -15 8 -5 0 -9
-4 -9 -8z"/>
<path d="M1259 1533 c-1 -5 -1 -11 0 -15 0 -5 -6 -8 -15 -8 -9 0 -12 5 -8 13
5 9 4 9 -6 0 -7 -6 -18 -10 -24 -9 -6 2 -8 1 -4 -1 4 -2 4 -12 1 -21 -3 -11
-2 -13 4 -6 4 6 16 10 25 8 10 -1 21 3 25 9 9 14 13 37 7 37 -2 0 -5 -3 -5 -7z"/>
<path d="M975 1520 c-3 -5 -2 -10 4 -10 5 0 13 5 16 10 3 6 2 10 -4 10 -5 0
-13 -4 -16 -10z"/>
<path d="M1315 1495 c3 -19 -1 -25 -16 -25 -11 0 -18 -4 -14 -9 3 -6 14 -9 24
-8 15 1 19 9 19 34 0 18 -3 33 -8 33 -4 0 -6 -11 -5 -25z"/>
<path d="M1395 1501 c4 -8 2 -17 -6 -22 -9 -6 -10 -9 -2 -9 19 0 27 21 13 33
-10 9 -11 9 -5 -2z"/>
<path d="M1439 1508 c-7 -23 -4 -35 7 -35 9 0 11 4 4 12 -5 7 -7 15 -3 18 3 4
3 7 0 7 -4 0 -7 -1 -8 -2z"/>
<path d="M1345 1489 c-3 -4 2 -6 10 -5 21 3 28 13 10 13 -9 0 -18 -4 -20 -8z"/>
<path d="M1600 1496 c0 -2 7 -7 16 -10 8 -3 12 -2 9 4 -6 10 -25 14 -25 6z"/>
<path d="M1130 1470 c0 -4 7 -11 16 -14 21 -8 21 -8 27 7 3 7 -5 13 -19 13
-13 1 -24 -2 -24 -6z"/>
<path d="M1341 1446 c-9 -10 -6 -13 11 -12 33 3 41 -4 26 -22 -11 -13 -11 -14
2 -7 23 14 40 15 40 2 0 -7 4 -6 9 3 13 19 3 34 -14 20 -9 -8 -15 -8 -20 -1
-13 22 -42 31 -54 17z"/>
<path d="M1450 1420 c0 -5 0 -13 1 -16 0 -4 -5 -11 -13 -15 -10 -7 -10 -9 0
-9 7 0 11 -4 8 -8 -8 -13 -49 -7 -54 8 -3 8 0 10 8 5 9 -6 11 -4 5 5 -6 10
-11 10 -20 -4 -11 -15 -13 -15 -19 -1 -4 11 -13 14 -26 10 -11 -3 -20 -2 -20
4 0 5 8 12 18 14 14 4 14 5 1 6 -9 0 -22 -5 -28 -13 -10 -11 -8 -16 8 -21 12
-3 25 -4 30 -1 11 7 25 -22 22 -49 -1 -18 0 -17 12 4 12 20 15 21 20 7 7 -16
39 -23 35 -7 -2 5 2 8 7 8 6 -1 9 -6 7 -10 -1 -5 2 -6 7 -3 9 6 34 -18 26 -25
-2 -3 7 -5 21 -5 17 0 24 5 22 16 -2 8 -9 16 -16 16 -26 3 -26 5 -3 24 13 11
18 20 12 20 -7 0 -9 5 -6 10 3 6 1 10 -4 10 -10 0 -15 -14 -12 -32 1 -11 -7
-10 -29 2 -13 7 -17 18 -14 35 2 14 2 25 -1 25 -3 0 -5 -4 -5 -10z m45 -90
l20 -25 -22 19 c-13 11 -23 24 -23 29 0 6 1 8 3 6 1 -2 11 -15 22 -29z"/>
<path d="M3262 1408 c-9 -4 -33 -7 -52 -8 l-35 -2 33 -8 c19 -4 39 -13 45 -19
24 -24 143 -7 175 26 14 14 16 14 -101 17 -26 0 -55 -2 -65 -6z"/>
<path d="M1205 1370 c3 -5 10 -10 16 -10 5 0 9 5 9 10 0 6 -7 10 -16 10 -8 0
-12 -4 -9 -10z"/>
<path d="M1670 1320 c0 -5 5 -10 11 -10 5 0 7 5 4 10 -3 6 -8 10 -11 10 -2 0
-4 -4 -4 -10z"/>
<path d="M1808 1323 c6 -2 18 -2 25 0 6 3 1 5 -13 5 -14 0 -19 -2 -12 -5z"/>
<path d="M1607 1279 c3 -10 9 -16 14 -13 13 8 11 21 -5 27 -10 4 -12 0 -9 -14z"/>
<path d="M1863 1265 c-3 -9 -3 -18 -1 -21 3 -3 8 4 11 16 6 23 -1 27 -10 5z"/>
<path d="M1758 1263 c6 -2 18 -2 25 0 6 3 1 5 -13 5 -14 0 -19 -2 -12 -5z"/>
<path d="M2103 1257 c0 -7 9 -13 19 -13 10 0 18 1 18 3 0 1 -8 7 -18 12 -13 7
-19 6 -19 -2z"/>
<path d="M2375 1260 c-4 -6 -11 -7 -17 -4 -7 4 -8 2 -4 -5 6 -9 11 -9 22 0 14
11 18 19 10 19 -3 0 -8 -5 -11 -10z"/>
<path d="M1900 1239 c0 -11 4 -18 10 -14 5 3 7 12 3 20 -7 21 -13 19 -13 -6z"/>
<path d="M1980 1255 c0 -5 5 -17 10 -25 5 -8 10 -10 10 -5 0 6 -5 17 -10 25
-5 8 -10 11 -10 5z"/>
<path d="M1748 1243 c6 -2 18 -2 25 0 6 3 1 5 -13 5 -14 0 -19 -2 -12 -5z"/>
<path d="M1767 1211 c-4 -17 -3 -21 5 -13 5 5 8 16 6 23 -3 8 -7 3 -11 -10z"/>
<path d="M1884 1212 c5 -8 -1 -12 -16 -13 -18 -1 -19 -2 -4 -6 23 -6 43 12 25
22 -8 5 -10 4 -5 -3z"/>
<path d="M2041 1204 c0 -11 3 -14 6 -6 3 7 2 16 -1 19 -3 4 -6 -2 -5 -13z"/>
<path d="M1665 1200 c-3 -5 -1 -10 4 -10 6 0 11 5 11 10 0 6 -2 10 -4 10 -3 0
-8 -4 -11 -10z"/>
<path d="M2070 1205 c0 -7 30 -13 34 -7 3 4 -4 9 -15 9 -10 1 -19 0 -19 -2z"/>
<path d="M2160 1200 c-9 -6 -10 -10 -3 -10 6 0 15 5 18 10 8 12 4 12 -15 0z"/>
<path d="M2085 1160 c3 -5 8 -10 11 -10 2 0 4 5 4 10 0 6 -5 10 -11 10 -5 0
-7 -4 -4 -10z"/>
<path d="M2286 1147 c3 -10 9 -15 12 -12 3 3 0 11 -7 18 -10 9 -11 8 -5 -6z"/>
<path d="M2313 1140 c1 -21 10 -18 13 5 1 8 -2 15 -6 15 -5 0 -8 -9 -7 -20z"/>
<path d="M2250 1115 c0 -9 -4 -13 -10 -10 -17 11 -11 -1 16 -30 26 -28 26 -28
19 -4 -6 20 -5 22 6 12 18 -18 29 -16 29 5 0 14 -2 15 -10 2 -6 -10 -10 -11
-10 -2 0 6 -7 12 -16 12 -8 0 -13 4 -9 9 3 5 1 12 -5 16 -5 3 -10 -1 -10 -10z"/>
<path d="M2214 1083 c3 -20 46 -52 46 -34 0 6 -7 11 -15 11 -8 0 -15 6 -15 14
0 8 -4 17 -9 20 -5 4 -8 -2 -7 -11z"/>
<path d="M2452 1080 c0 -14 2 -19 5 -12 2 6 2 18 0 25 -3 6 -5 1 -5 -13z"/>
<path d="M2470 1078 c0 -4 4 -8 9 -8 6 0 12 4 15 8 3 5 -1 9 -9 9 -8 0 -15 -4
-15 -9z"/>
<path d="M2521 1071 c-1 -21 1 -22 17 -10 27 21 28 23 10 16 -9 -3 -19 -1 -22
6 -2 7 -5 1 -5 -12z"/>
<path d="M3033 1080 c-16 -7 -21 -14 -16 -27 5 -14 8 -14 11 -2 3 7 12 19 21
26 19 14 14 15 -16 3z"/>
<path d="M3072 1078 c-15 -15 -16 -41 0 -36 13 5 31 48 20 48 -5 0 -13 -5 -20
-12z"/>
<path d="M3123 1064 c0 -17 2 -22 7 -13 5 6 6 18 3 26 -8 19 -10 16 -10 -13z"/>
<path d="M2025 1070 c4 -6 11 -8 16 -5 14 9 11 15 -7 15 -8 0 -12 -5 -9 -10z"/>
<path d="M2328 1073 c7 -3 16 -2 19 1 4 3 -2 6 -13 5 -11 0 -14 -3 -6 -6z"/>
<path d="M2446 1027 c3 -10 9 -15 12 -12 3 3 0 11 -7 18 -10 9 -11 8 -5 -6z"/>
<path d="M2569 1026 c7 -8 10 -20 6 -26 -3 -5 -1 -10 5 -10 7 0 10 -6 7 -14
-5 -14 10 -36 25 -36 4 0 7 5 6 11 -2 6 3 14 11 17 8 3 11 0 7 -7 -4 -6 -2
-11 4 -11 7 0 10 6 7 13 -2 6 -14 12 -26 11 -17 0 -24 6 -28 27 -3 15 -12 30
-21 34 -12 4 -13 3 -3 -9z"/>
<path d="M2150 1010 c0 -5 5 -10 11 -10 5 0 7 5 4 10 -3 6 -8 10 -11 10 -2 0
-4 -4 -4 -10z"/>
<path d="M2915 990 c-16 -17 -16 -20 -3 -15 9 4 19 13 22 21 7 19 2 18 -19 -6z"/>
<path d="M4163 963 c9 -2 23 -2 30 0 6 3 -1 5 -18 5 -16 0 -22 -2 -12 -5z"/>
<path d="M4218 963 c7 -3 16 -2 19 1 4 3 -2 6 -13 5 -11 0 -14 -3 -6 -6z"/>
<path d="M4253 963 c8 -7 119 -5 126 3 2 2 -26 4 -64 4 -38 0 -65 -3 -62 -7z"/>
<path d="M3844 935 c-10 -8 -14 -15 -8 -15 5 0 19 7 30 15 10 8 14 15 8 15 -5
0 -19 -7 -30 -15z"/>
<path d="M4258 933 c7 -3 16 -2 19 1 4 3 -2 6 -13 5 -11 0 -14 -3 -6 -6z"/>
<path d="M4170 905 c-10 -12 -9 -15 4 -15 11 0 14 -5 10 -12 -4 -6 -3 -8 4 -4
11 7 12 46 1 46 -4 0 -12 -7 -19 -15z"/>
<path d="M2728 853 c6 -2 18 -2 25 0 6 3 1 5 -13 5 -14 0 -19 -2 -12 -5z"/>
<path d="M4110 530 c0 -5 5 -10 10 -10 6 0 10 5 10 10 0 6 -4 10 -10 10 -5 0
-10 -4 -10 -10z"/>
<path d="M3860 478 c0 -5 -5 -6 -12 -2 -7 4 -8 3 -4 -4 5 -9 13 -9 27 -2 23
13 24 17 4 17 -8 0 -15 -4 -15 -9z"/>
<path d="M4200 475 c0 -8 4 -15 10 -15 5 0 7 7 4 15 -4 8 -8 15 -10 15 -2 0
-4 -7 -4 -15z"/>
<path d="M3962 454 c-7 -8 -8 -14 -3 -14 10 0 25 19 20 25 -2 1 -10 -3 -17
-11z"/>
</g>
</svg>
